<svg width="32" height="39" viewBox="0 0 32 39" fill="none" xmlns="http://www.w3.org/2000/svg">
<path fill-rule="evenodd" clip-rule="evenodd" d="M1.55916 36.6687V36.6801V36.6915L1.5585 36.7029L1.55719 36.7136L1.55588 36.7243L1.55457 36.7357L1.55194 36.7465L1.54931 36.7578L1.54603 36.7679L1.54275 36.7773L1.53815 36.7873L1.53422 36.796L1.52896 36.8054L1.52371 36.8141L1.5178 36.8228L1.51124 36.8315L1.49942 36.8449L1.48564 36.8577L1.4712 36.8684L1.45544 36.8778L1.43903 36.8851L1.42196 36.8898L1.40489 36.8932L1.38454 36.8938L1.36485 36.8912L1.3491 36.8871L1.33334 36.8825L1.31824 36.8758L1.3038 36.8671L1.28936 36.8577L1.27623 36.8463L1.26179 36.8309L1.24932 36.8114L1.24013 36.7927L1.23225 36.7733L1.22634 36.7538L1.22174 36.7331L1.21912 36.7116L1.21715 36.6902L1.21649 36.6694V36.4282H0.581047V37.4312H0.620434L0.637502 37.4318L0.655883 37.4338L0.67295 37.4372L0.690018 37.4419L0.707086 37.4492L0.722841 37.4573L0.737939 37.468L0.752381 37.4807L0.764854 37.4948L0.776013 37.5109L0.78586 37.5276L0.793738 37.5457L0.800302 37.5645L0.805554 37.5832L0.808836 37.6027L0.811462 37.6268L0.810805 37.6502L0.80818 37.6703L0.804241 37.6904L0.798333 37.7092L0.790455 37.728L0.781265 37.7454L0.770105 37.7615L0.758289 37.7762L0.750412 37.7842L0.743847 37.7903L0.736626 37.7963L0.729405 37.8017L0.722184 37.8063L0.714307 37.811L0.705773 37.8157L0.697896 37.8191L0.690018 37.8224L0.680171 37.8251L0.670325 37.8278L0.660478 37.8298L0.650631 37.8311L0.640128 37.8318L0.630281 37.8325H0.619778H0.200961H0.191115L0.181268 37.8318L0.171421 37.8311L0.161574 37.8298L0.152384 37.8278L0.143194 37.8258L0.134003 37.8224L0.125469 37.8197L0.117592 37.8164L0.109058 37.8124L0.101181 37.8077L0.0933032 37.803L0.0854258 37.7976L0.0782048 37.7916L0.0709839 37.7856L0.0611371 37.7762L0.0486645 37.7601L0.0394741 37.7447L0.0315967 37.7286L0.0243757 37.7119L0.0191241 37.6951L0.0151854 37.6777L0.0119032 37.6596L0.00927734 37.6375L0.0099338 37.6127L0.0125596 37.5926L0.0164983 37.5725L0.0217499 37.5531L0.0296274 37.5343L0.0388177 37.5169L0.0493209 37.5008L0.0617935 37.4854L0.0768919 37.4714L0.0926468 37.46L0.109058 37.4506L0.126782 37.4432L0.144506 37.4372L0.162887 37.4338L0.181924 37.4318L0.200305 37.4312H0.239692V36.4282H0.237066H0.227876L0.217373 36.4275L0.208182 36.4269L0.198336 36.4255L0.189145 36.4235L0.179298 36.4209L0.170108 36.4182L0.161574 36.4148L0.153697 36.4121L0.145819 36.4081L0.137286 36.4034L0.129408 36.3987L0.121531 36.3934L0.11431 36.3874L0.107089 36.3813L0.0978984 36.3726L0.0860822 36.3572L0.0762355 36.3418L0.0677016 36.325L0.0611371 36.3076L0.055229 36.2902L0.0512903 36.2721L0.048008 36.254L0.0453822 36.2306L0.0466951 36.2071L0.0486645 36.187L0.0526032 36.1669L0.0585113 36.1475L0.0657322 36.1287L0.0749226 36.1107L0.0860822 36.0939L0.0985548 36.0792L0.112997 36.0651L0.128752 36.0537L0.145819 36.0443L0.162887 36.037L0.181268 36.0316L0.199648 36.0276L0.218029 36.0256L0.23641 36.0249H1.55916V36.6687Z" fill="#2B2A29"/>
<path fill-rule="evenodd" clip-rule="evenodd" d="M3.51098 36.8823V36.8441V36.8314V36.8194V36.8073V36.7952V36.7832V36.7711V36.7597V36.7483V36.7363L3.5077 36.7256V36.7142V36.7028L3.50376 36.6921L3.49916 36.6807L3.49522 36.67L3.49063 36.6592L3.48538 36.6485L3.48013 36.6378L3.47487 36.6271L3.46962 36.617L3.46306 36.6063L3.45715 36.5963L3.45058 36.5855L3.44402 36.5755L3.4368 36.5654L3.42958 36.5554L3.4217 36.5453L3.41382 36.5353L3.40595 36.5259L3.39807 36.5165L3.38953 36.5071L3.381 36.4984L3.37247 36.4897L3.36393 36.4817L3.35474 36.4736L3.34621 36.4663L3.33702 36.4589L3.32848 36.4522L3.31929 36.4455L3.3101 36.4395L3.30026 36.4335L3.29107 36.4274L3.28188 36.4221L3.27203 36.4167L3.26218 36.412L3.25234 36.408L3.24249 36.4033L3.23199 36.3993H3.22214H3.21164L3.20113 36.3959H3.19063H3.17947H3.16897H3.15781H3.14665H3.13483H3.01601H3.00485H2.99369H2.98253H2.97137H2.96021H2.94971L2.93921 36.3993H2.92871H2.9182L2.90836 36.4033L2.89785 36.408L2.88801 36.412L2.87816 36.4167L2.86831 36.4221L2.85912 36.4274L2.84927 36.4335L2.84008 36.4395L2.83089 36.4455L2.8217 36.4522L2.81251 36.4589L2.80332 36.4663L2.79479 36.4736L2.7856 36.4817L2.77706 36.4897L2.76853 36.4984L2.76 36.5071L2.75146 36.5159L2.74293 36.5259L2.73505 36.5353L2.72717 36.5453L2.7193 36.5554L2.71208 36.5648L2.70486 36.5748L2.69829 36.5849L2.69173 36.5956L2.68516 36.6056L2.67925 36.6157L2.674 36.6264L2.66809 36.6365L2.6635 36.6472L2.65825 36.6579L2.65365 36.6686L2.64906 36.68L2.64512 36.6907L2.64118 36.7014V36.7128L2.63724 36.7242V36.7356V36.747V36.7584V36.7705V36.7825V36.7946V36.8066V36.8187V36.8314V36.9333V36.946V36.958V36.9701V36.9822V36.9942V37.0056V37.0177V37.0291V37.0404L2.64118 37.0518V37.0626L2.64512 37.0739L2.64906 37.0847L2.65365 37.0961L2.65825 37.1068L2.66284 37.1175L2.66809 37.1282L2.67335 37.1383L2.67925 37.149L2.68516 37.159L2.69107 37.1698L2.69763 37.1798L2.70486 37.1898L2.71142 37.1999L2.71864 37.21L2.72652 37.22L2.7344 37.2301L2.74227 37.2394L2.75081 37.2495L2.75934 37.2582L2.76787 37.2676L2.77641 37.2756L2.78494 37.2836L2.79348 37.2917L2.80267 37.2991L2.8112 37.3064L2.82302 37.3171L2.83221 37.3238L2.8414 37.3299L2.85124 37.3359L2.86043 37.3419L2.87028 37.3473L2.87947 37.352L2.88932 37.3573L2.89982 37.3614L2.90967 37.3661L2.92017 37.3701H2.93002L2.94118 37.3734H2.95168H2.96218H2.97334H2.9845H2.99566H3.00682H3.01864H3.11186H3.12302H3.13417H3.14468H3.15518H3.16568H3.17619H3.18669L3.19719 37.3701L3.20704 37.3661H3.21689L3.22673 37.3614L3.23658 37.3573L3.24643 37.352L3.25627 37.3473L3.26547 37.3419L3.27531 37.3359L3.2845 37.3299L3.29369 37.3238L3.30288 37.3171L3.31207 37.3104L3.32126 37.3031L3.3298 37.2957L3.33899 37.2883L3.34752 37.2796L3.35671 37.2716L3.36525 37.2629L3.37378 37.2535L3.38231 37.2441L3.39019 37.2347L3.39807 37.2247L3.40595 37.2153L3.41382 37.2053L3.42039 37.1952L3.42761 37.1852L3.43417 37.1751L3.44008 37.1651L3.44665 37.1543L3.4519 37.1443L3.45781 37.1336L3.46306 37.1229L3.46765 37.1121L3.47225 37.1014L3.47684 37.0907L3.48144 37.0793L3.48538 37.0686L3.48866 37.0572V37.0458L3.49194 37.0344V37.023V37.011V36.9989V36.9869V36.9748V36.9627V36.95V36.9373V36.9245V36.885L3.51098 36.8823ZM3.71317 37.4056L3.70135 37.4237L3.68953 37.4418L3.67772 37.4592L3.66459 37.4766L3.65146 37.494L3.63767 37.5108L3.62389 37.5275L3.60945 37.5436L3.595 37.5597L3.58056 37.5751L3.56546 37.5898L3.55037 37.6039L3.53461 37.618L3.51886 37.6314L3.5031 37.6441L3.48735 37.6562L3.47093 37.6682L3.45452 37.6796L3.43746 37.6903L3.42104 37.7004L3.40332 37.7104L3.38625 37.7198L3.36853 37.7278L3.3508 37.7365L3.33308 37.7439L3.3147 37.7513L3.29698 37.7573L3.27794 37.7633L3.25956 37.7694L3.24052 37.7741L3.22148 37.7788L3.20245 37.7828H3.18341H3.16372H3.14402H3.12433H3.10398H3.01995H2.9996H2.97925H2.95956H2.93986H2.92017L2.90048 37.7788L2.88078 37.7741L2.86175 37.7687L2.84271 37.7633L2.82433 37.7566L2.80595 37.7499L2.78757 37.7426L2.76919 37.7345L2.75081 37.7265L2.73308 37.7171L2.71601 37.7077L2.69829 37.6977L2.68122 37.687L2.66416 37.6756L2.64774 37.6642L2.63133 37.6521L2.61492 37.6387H2.61033V38.1298H2.83418H2.85256H2.87028L2.88801 38.1352L2.90507 38.1419L2.92083 38.1506L2.93658 38.1613L2.95299 38.1754L2.96612 38.1928L2.97597 38.2082L2.9845 38.2243L2.99172 38.2417L2.99698 38.2591L3.00157 38.2779L3.00485 38.2966V38.3201V38.3435V38.3643L3.00026 38.3837L2.99435 38.4032L2.98647 38.4213L2.97728 38.4387L2.96678 38.4548L2.95496 38.4688L2.94774 38.4762L2.94118 38.4829L2.93396 38.4889L2.92608 38.495L2.9182 38.4996L2.91032 38.5043L2.90179 38.509H2.89457H2.88669L2.87685 38.5124H2.867H2.85715H2.84665H2.18757L2.16656 38.5231H2.1495L2.13243 38.5184L2.11536 38.5117L2.09961 38.503L2.08385 38.4929L2.06941 38.4802L2.05628 38.4655L2.04578 38.4494L2.03593 38.4327L2.02805 38.4146L2.02149 38.3958L2.01689 38.3764L2.01361 38.3569V38.3322V38.3087V38.2879L2.01821 38.2685L2.02346 38.2484L2.03134 38.2303L2.04053 38.2129L2.05103 38.1961L2.0635 38.1801L2.07138 38.172L2.0786 38.1653L2.08648 38.1593L2.09435 38.1539L2.10223 38.1493L2.10945 38.1452L2.11733 38.1419H2.12586H2.13505H2.14424H2.15344H2.16263H2.17247H2.18166H2.2716V36.4281H2.17575H2.16591H2.15672H2.14687H2.13768L2.1298 36.4247H2.12193L2.11339 36.4207L2.10551 36.416L2.09764 36.4113L2.08976 36.406L2.08254 36.4006L2.07597 36.3946L2.06547 36.3852L2.053 36.3691L2.04315 36.3537L2.03527 36.337L2.02871 36.3202L2.02346 36.3028L2.01886 36.2847V36.2666V36.2432V36.2197V36.1996L2.02214 36.1795L2.02805 36.1601L2.03527 36.1413L2.04446 36.1239L2.05562 36.1072L2.0681 36.0918L2.08319 36.0777L2.09895 36.0663L2.11602 36.0569L2.13309 36.0496L2.15081 36.0442L2.16919 36.0402H2.18823H2.61492V36.1501L2.62083 36.1454L2.63396 36.1346L2.64774 36.1239L2.66087 36.1139L2.67466 36.1038L2.68779 36.0944L2.70289 36.0837L2.71405 36.0777L2.72324 36.0717L2.73308 36.0663L2.74359 36.0609L2.75343 36.0556L2.76394 36.0509L2.77378 36.0462L2.78429 36.0415L2.79479 36.0368L2.80595 36.0328L2.81645 36.0288L2.82696 36.0248L2.83811 36.0208H2.84927H2.86043H2.87159H2.88275H2.89457H2.90573H2.91755H2.92936H2.94118H2.95299H2.96547H2.97728H2.98976H3.00157H3.11711H3.13024H3.14337H3.15649H3.16897H3.1821H3.19522H3.2077H3.22083L3.2333 36.0241H3.24643H3.2589L3.27137 36.0281H3.28385L3.29632 36.0321L3.30879 36.0368L3.32126 36.0415L3.33308 36.0462L3.34555 36.0509L3.35803 36.0563L3.36984 36.0616L3.38231 36.067L3.39413 36.073L3.40595 36.079L3.41776 36.0857L3.42958 36.0924L3.44139 36.0991L3.45321 36.1058L3.46503 36.1132L3.48735 36.1286L3.51032 36.1447L3.53198 36.1621L3.55299 36.1795L3.574 36.1983L3.59369 36.2177L3.61339 36.2385L3.63177 36.2593L3.64949 36.2814L3.66656 36.3041L3.68297 36.3276L3.69872 36.3517L3.71382 36.3772L3.72826 36.4033L3.74205 36.4294L3.75387 36.4556L3.75977 36.4676L3.76634 36.481L3.77225 36.4944L3.7775 36.5078L3.78275 36.5212L3.788 36.5346L3.79325 36.548L3.79785 36.5614L3.8031 36.5755L3.80704 36.5889L3.80769 36.5802L3.81163 36.5942L3.81557 36.6083L3.81951 36.6217V36.6358L3.82279 36.6505V36.6653V36.6793V36.6941V36.7081V36.7229V36.737V36.7517V36.7658V36.7805V36.7952V36.81V36.9527V36.9755V36.9982V37.0203L3.81951 37.0425V37.0646L3.81557 37.086L3.81163 37.1081L3.80638 37.1296L3.80113 37.1503L3.79588 37.1718L3.78997 37.1925L3.78275 37.2133L3.77619 37.2334L3.76831 37.2535L3.76043 37.2736L3.75255 37.2937L3.74336 37.3131L3.73417 37.3326L3.72433 37.3513L3.71448 37.3701L3.70398 37.3888L3.71317 37.4056Z" fill="#2B2A29"/>
<path fill-rule="evenodd" clip-rule="evenodd" d="M29.4091 3.68483C29.0902 3.61769 28.7657 3.58224 28.4401 3.57898C28.1142 3.57047 27.7935 3.66398 27.5211 3.84697C27.3622 3.95952 27.2822 4.0761 27.2822 4.192C27.2827 4.23277 27.2936 4.2727 27.3137 4.30791C27.3338 4.34313 27.3625 4.37244 27.397 4.39299C27.5401 4.48947 27.7338 4.53703 27.9819 4.53703C28.2253 4.53175 28.4665 4.48929 28.6975 4.41108C28.9497 4.33408 29.1895 4.21963 29.4091 4.07141V3.68483ZM29.4091 5.38388V5.07636C29.1814 5.19871 28.9385 5.28887 28.687 5.34435C28.6213 5.35909 28.5603 5.37182 28.4992 5.38254L29.4091 5.38388ZM19.0089 5.35172L18.9898 4.85661L18.5421 4.22081C18.2651 3.82687 17.9947 3.62856 17.7262 3.62856H17.4715V4.39232H18.1548V5.35239L19.0089 5.35172ZM13.7199 2.22229H12.363C11.8004 2.22229 11.5175 2.33685 11.5175 2.56263C11.5173 2.61748 11.5347 2.67088 11.5671 2.71467C11.5994 2.75846 11.6449 2.79024 11.6967 2.80516C11.8161 2.85273 12.1004 2.87685 12.5468 2.87685H13.7199V2.22229ZM13.2498 5.33698V4.39232H13.7199V3.76925H13.3148C12.6715 4.04461 12.0964 4.61542 11.5857 5.33229L13.2498 5.33698ZM8.33694 2.95524L7.63191 1.18518L6.92229 2.95524H8.33694ZM4.93061 5.31152L4.93652 4.39701L5.41507 4.39232L6.79362 0.898429H5.65927V0L8.10981 0.00468979L9.85138 4.39232H10.3398V5.33028H10.6115V4.4017L11.1124 4.39366C11.2852 4.14431 11.4906 3.92025 11.7229 3.72771C11.3474 3.65446 11.0735 3.50617 10.901 3.28285C10.7307 3.06296 10.6396 2.78999 10.6431 2.50971C10.6431 1.72584 11.1993 1.33369 12.3118 1.33324H15.3006V2.22229H14.5929V4.39232H15.2494V5.34301H16.0627V4.39299H16.5918V2.22229L16.0398 2.22698L16.0509 1.31984L16.6417 1.32989H17.4071L18.0098 1.31984L18.0373 2.231L17.4669 2.22229V2.73214L17.6067 2.74152C17.6968 2.7551 17.7887 2.75055 17.8772 2.72812C17.9356 2.70132 18.2376 2.57335 18.3629 2.46013L18.7844 2.07691H18.6203L18.6262 1.31649L20.7642 1.30242L20.7675 2.11911H19.7113L19.4691 2.2444C19.4033 2.29317 19.3432 2.34936 19.2898 2.41189L18.6662 3.08186C18.9122 3.24928 19.124 3.46385 19.2898 3.71364L19.7553 4.38897L21.1207 4.37289V5.35976L22.8518 5.36512C22.5467 5.30964 22.2575 5.18586 22.0049 5.00266C21.4933 4.61542 21.2373 4.08681 21.2369 3.41685C21.2369 2.78037 21.445 2.25378 21.8612 1.83706C22.2774 1.42034 22.8196 1.21198 23.4879 1.21198C23.7144 1.21009 23.9405 1.23368 24.162 1.28232C24.362 1.32587 24.5556 1.39592 24.7377 1.49068L24.7279 1.12019H25.4946V2.98605L24.7482 2.99409C24.7432 2.88475 24.7278 2.77615 24.7023 2.66983C24.6682 2.5077 24.4909 2.39313 24.3609 2.31474C24.1294 2.17494 23.8345 2.10504 23.476 2.10504C23.0638 2.10504 22.7329 2.22832 22.4835 2.47487C22.3608 2.59611 22.2643 2.74217 22.2001 2.90368C22.1358 3.06519 22.1054 3.23861 22.1106 3.41283C22.1106 3.76255 22.2301 4.03768 22.469 4.23823C22.708 4.43877 23.1049 4.53994 23.6599 4.54172C23.9611 4.55065 24.262 4.51247 24.552 4.4285C24.6998 4.38219 24.8347 4.3004 24.9452 4.18999L25.213 3.922L25.7546 4.47875C25.6128 4.74673 25.5793 4.80435 25.3213 5.04152C25.0461 5.21555 24.7386 5.3296 24.4181 5.37651L27.4712 5.38589C27.2318 5.33185 27.0088 5.21944 26.8213 5.05827C26.5266 4.80368 26.3808 4.52229 26.3808 4.21478C26.3808 3.84049 26.5679 3.493 26.9421 3.17231C27.3163 2.85161 27.8323 2.68903 28.49 2.68457C28.7982 2.68787 29.1056 2.71722 29.4091 2.77233V2.55861C29.4097 2.49403 29.3946 2.43029 29.3651 2.37312C29.3357 2.31594 29.2928 2.26711 29.2403 2.231C29.1281 2.14792 28.9121 2.10504 28.5977 2.10504C28.3351 2.10504 28.0069 2.18343 27.5907 2.26249L27.0938 2.35628L26.8555 1.6642C26.9631 1.57175 27.2126 1.47929 27.3412 1.44244C27.5565 1.38081 27.7351 1.30242 27.9576 1.26557C28.1595 1.23159 28.3636 1.21367 28.5681 1.21198C29.1117 1.21198 29.5333 1.33145 29.8331 1.57041C30.1329 1.80936 30.283 2.1372 30.2835 2.55392V4.39232H30.9845V5.39125V35.5868H0V4.4955C1.42056 3.29982 2.27855 2.53048 2.57395 2.18745C2.72362 2.01192 2.79714 1.84577 2.79714 1.68899C2.79557 1.58848 2.77214 1.48958 2.72855 1.39944C2.68495 1.3093 2.62228 1.23016 2.54507 1.16776C2.37701 1.01768 2.15338 0.942647 1.87417 0.942647C1.6169 0.933088 1.3655 1.02252 1.1698 1.19322C1.07264 1.28299 1.03326 1.43374 0.934788 1.58984L0.787743 1.82567L0.157549 1.50408C0.157549 1.34731 0.229758 1.14967 0.371552 0.914509C0.523705 0.670368 0.739713 0.47451 0.995182 0.349054C1.27134 0.207026 1.57676 0.134439 1.88599 0.137344C2.38358 0.137344 2.79102 0.292553 3.1083 0.602973C3.2613 0.743515 3.38309 0.915813 3.46551 1.10832C3.54793 1.30082 3.58908 1.50908 3.5862 1.71914C3.58792 1.93303 3.54119 2.14444 3.44966 2.33685C3.35775 2.52713 3.13981 2.78975 2.7932 3.12474C2.52143 3.38647 1.99168 3.85903 1.20393 4.54239H2.76432L2.7827 3.89051H3.59408V5.3075L4.93061 5.31152ZM8.69865 3.84831H6.5724L6.35971 4.39232H7.02273L7.03585 5.31956L8.07699 5.32291V4.39634L8.69471 4.39232H8.90871L8.69865 3.84831ZM6.09647 36.3184L6.09319 36.3251L6.08925 36.3318L6.08531 36.3385L6.08072 36.3465L6.07415 36.3566L6.06627 36.3666L6.0584 36.376L6.04921 36.3847L6.04002 36.3927L6.03017 36.4001L6.01967 36.4068L6.00851 36.4128H6.00194H5.99603H5.99078H5.98487H5.97962H5.97371H5.96781H5.94943L5.24111 38.126H5.28969H5.30807H5.3258L5.34352 38.1313L5.35993 38.138L5.37634 38.1467L5.3921 38.1568L5.40851 38.1715L5.4223 38.1889L5.43149 38.2043L5.44002 38.2204L5.44724 38.2378L5.45315 38.2559L5.45709 38.2747L5.46037 38.2935V38.3169V38.3397V38.3598L5.45577 38.3792L5.44987 38.3986L5.44265 38.4167L5.43345 38.4341L5.4223 38.4509L5.41048 38.4656L5.4026 38.473L5.39604 38.4797L5.38882 38.4851L5.3816 38.4911L5.37372 38.4958L5.36584 38.5005L5.35796 38.5045L5.35074 38.5078H5.34221L5.33236 38.5112H5.32251H5.31267H5.30282H4.51508H4.49735H4.47963L4.46256 38.5065L4.44615 38.4998L4.42974 38.4911L4.41464 38.481L4.39954 38.4676L4.38707 38.4536L4.37591 38.4375L4.36672 38.4207L4.35884 38.4027L4.35228 38.3839L4.34768 38.3645L4.34374 38.345V38.3203V38.2968V38.276L4.34768 38.2566L4.35359 38.2365L4.36081 38.2184L4.37 38.201L4.38051 38.1842L4.39298 38.1682L4.40151 38.1601L4.40873 38.1534L4.41595 38.1474L4.42383 38.142L4.43171 38.138L4.43959 38.1333L4.44746 38.13H4.456H4.46519H4.47438H4.48357H4.49276H4.50195H4.51114H4.86825L5.04221 37.7119L4.49867 36.4309H4.48882H4.47963H4.47044H4.46059L4.4514 36.4276L4.44287 36.4236L4.43499 36.4195L4.42777 36.4155L4.41989 36.4108L4.41201 36.4055L4.40479 36.3994L4.39823 36.3793L4.38773 36.37L4.37591 36.3539L4.36672 36.3385L4.35819 36.3224L4.35162 36.305L4.34637 36.2882L4.34243 36.2701V36.2527V36.2299V36.1998V36.1871V36.1737V36.1609L4.34637 36.1489L4.35097 36.1368L4.35556 36.1248L4.36147 36.112L4.36935 36.0986L4.37788 36.0866L4.38707 36.0752L4.39757 36.0651L4.40808 36.0558L4.41924 36.0484L4.43171 36.0417L4.44352 36.037L4.45468 36.033H4.46519H4.47635H4.48816H4.49998H4.89385H4.91223L4.92996 36.037L4.94768 36.0417L4.96475 36.0491L4.98116 36.0584L4.99691 36.0692L5.01333 36.0839L5.02645 36.1006L5.03564 36.1167L5.04418 36.1328L5.0514 36.1502L5.05665 36.1683L5.06125 36.1864L5.06453 36.2052V36.2279V36.2514V36.2715L5.05993 36.2916L5.05403 36.3103L5.0468 36.3291L5.03761 36.3465L5.02645 36.3626L5.01464 36.3773L5.00676 36.3854L5.0002 36.3914L4.99298 36.3974L4.98575 36.4028L4.97788 36.4075L4.97 36.4122L4.96212 36.4169H4.95424L4.94571 36.4202H4.93586H4.92667H4.91683H4.90698H4.87416L5.22602 37.2517L5.57262 36.4202H5.54046H5.53061H5.52142H5.51223H5.50238H5.4945H5.48663L5.47809 36.4162L5.47022 36.4115L5.46234 36.4068L5.45446 36.4015L5.44724 36.3954L5.44002 36.3894L5.43083 36.3807L5.41836 36.3653L5.40851 36.3499L5.40063 36.3331L5.39341 36.3157L5.38816 36.2983L5.38291 36.2722V36.2541V36.2306V36.2072V36.1864L5.38685 36.167L5.39275 36.1469L5.39998 36.1281L5.40917 36.1107L5.42033 36.0946L5.4328 36.0792L5.44724 36.0651L5.463 36.0537L5.47941 36.0444L5.49713 36.037L5.51485 36.0316L5.53324 36.0276H5.55227H5.94614H5.95533H5.96452H5.97306H5.98225H5.99078H5.99866L6.00719 36.031L6.01573 36.035L6.02361 36.0397L6.03148 36.0444L6.0387 36.0497L6.04658 36.0558L6.0584 36.0658L6.07218 36.0832L6.08137 36.0993L6.08991 36.1154L6.09713 36.1328L6.10238 36.1509L6.10697 36.169V36.1877V36.2092V36.2514V36.2594V36.2675V36.2755V36.2835L6.10369 36.2909V36.299L6.09647 36.3184Z" fill="#2B2A29"/>
<path fill-rule="evenodd" clip-rule="evenodd" d="M8.21221 37.6375L8.20959 37.6603L8.20631 37.6777L8.20171 37.6951L8.1958 37.7125L8.18924 37.7286L8.18136 37.7447L8.17217 37.7594L8.15904 37.7762L8.14919 37.7862L8.14197 37.7916L8.13541 37.797L8.12819 37.8023L8.12031 37.807L8.11309 37.8117L8.10521 37.8157L8.09733 37.8191L8.0888 37.8224L8.07961 37.8251L8.06976 37.8278L8.06057 37.8298L8.05073 37.8311L8.04088 37.8318L8.03038 37.8325H8.02053H7.60106H7.59187L7.58136 37.8318L7.57152 37.8311L7.56233 37.8298L7.55248 37.8285L7.54329 37.8258L7.53475 37.8238L7.52425 37.8204L7.51506 37.8164L7.50784 37.8124L7.49996 37.8084L7.49209 37.803L7.48486 37.7983L7.47764 37.7923L7.47042 37.7862L7.46254 37.7782L7.45073 37.7641L7.43957 37.7481L7.43038 37.7306L7.42316 37.7125L7.41725 37.6931L7.41331 37.6737L7.41069 37.6536L7.41003 37.6301L7.41265 37.606L7.41594 37.5859L7.42053 37.5665L7.4271 37.5477L7.43432 37.5296L7.44416 37.5122L7.45532 37.4961L7.4678 37.4814L7.48224 37.4687L7.49734 37.458L7.51375 37.4492L7.53016 37.4419L7.54788 37.4372L7.56561 37.4338L7.58333 37.4318L7.60106 37.4312H7.64044V36.4282H7.005V37.4312H7.04438L7.06145 37.4318L7.07918 37.4338L7.0969 37.4372L7.11397 37.4419L7.13038 37.4492L7.14679 37.4573L7.16189 37.468L7.17568 37.4807L7.1888 37.4948L7.19996 37.5109L7.20981 37.5276L7.21769 37.5457L7.22425 37.5645L7.22885 37.5832L7.23279 37.6027L7.23541 37.6268L7.2341 37.6502L7.23213 37.6703L7.22753 37.6904L7.22163 37.7092L7.21441 37.728L7.20522 37.7454L7.19406 37.7615L7.18224 37.7762L7.17436 37.7842L7.1678 37.7903L7.16058 37.7963L7.15336 37.8017L7.14548 37.8063L7.1376 37.811L7.12972 37.8157L7.12185 37.8191L7.11331 37.8224L7.10412 37.8251L7.09428 37.8278L7.08443 37.8298L7.07458 37.8311L7.06408 37.8318L7.05357 37.8325H7.04373H6.62426H6.61506L6.60522 37.8318L6.59537 37.8311L6.58552 37.8298L6.57633 37.8278L6.56649 37.8258L6.5573 37.8224L6.54942 37.8197L6.54089 37.8164L6.53301 37.8124L6.52447 37.8077L6.5166 37.803L6.50938 37.7976L6.5015 37.7916L6.49428 37.7856L6.48443 37.7762L6.47261 37.7601L6.46342 37.7447L6.45489 37.7286L6.44833 37.7119L6.44307 37.6951L6.43848 37.6777L6.43585 37.6596L6.43323 37.6375L6.43388 37.6127L6.43585 37.5926L6.43979 37.5725L6.4457 37.5531L6.45358 37.5343L6.46277 37.5169L6.47327 37.5008L6.48574 37.4854L6.50019 37.4714L6.5166 37.46L6.53301 37.4506L6.55073 37.4432L6.56846 37.4372L6.58684 37.4338L6.60587 37.4318L6.6236 37.4312H6.66364V36.4282H6.66102H6.65117L6.64132 36.4275L6.63148 36.4269L6.62229 36.4255L6.61244 36.4235L6.60325 36.4209L6.59406 36.4182L6.58552 36.4148L6.57765 36.4121L6.56911 36.4081L6.56124 36.4034L6.55336 36.3987L6.54548 36.3934L6.53826 36.3874L6.53104 36.3813L6.52185 36.3726L6.50938 36.3572L6.49953 36.3418L6.49165 36.325L6.48443 36.3076L6.47918 36.2902L6.47524 36.2721L6.47196 36.254L6.46933 36.2306L6.46999 36.2071L6.47261 36.187L6.47655 36.1669L6.4818 36.1475L6.48968 36.1287L6.49887 36.1107L6.51003 36.0939L6.52251 36.0792L6.53695 36.0651L6.5527 36.0537L6.56977 36.0443L6.58684 36.037L6.60456 36.0316L6.62294 36.0276L6.64198 36.0256L6.66036 36.0249H7.98442H7.99361L8.00281 36.0256L8.01265 36.0262L8.02184 36.0276L8.03103 36.0289L8.04022 36.0309L8.04941 36.0336L8.0586 36.0363L8.06714 36.0396L8.07567 36.0437L8.08421 36.0483L8.09274 36.0537L8.10062 36.0591L8.10849 36.0658L8.11637 36.0731L8.12359 36.0805L8.13475 36.0946L8.14526 36.1113L8.1551 36.1287L8.16232 36.1475L8.16823 36.1669L8.17217 36.187L8.1748 36.2071L8.17545 36.2312L8.17283 36.254L8.16954 36.2721L8.16561 36.2902L8.1597 36.3076L8.15248 36.325L8.1446 36.3411L8.13475 36.3565L8.12228 36.3726L8.11243 36.382L8.10587 36.3874L8.09865 36.3934L8.09143 36.3981L8.08421 36.4028L8.07633 36.4075L8.06845 36.4115L8.06057 36.4148L8.0527 36.4182L8.04285 36.4209L8.03366 36.4235L8.02381 36.4255L8.01397 36.4269L8.00412 36.4275L7.99427 36.4282H7.98442H7.9818V37.4312H8.02053H8.02972L8.03957 37.4318L8.04876 37.4325L8.05795 37.4338L8.06779 37.4352L8.07698 37.4372L8.08617 37.4399L8.09471 37.4426L8.10324 37.4459L8.11243 37.4499L8.12097 37.4546L8.1295 37.46L8.13803 37.4653L8.14591 37.472L8.15313 37.4794L8.16035 37.4868L8.17151 37.5008L8.18202 37.5176L8.19121 37.535L8.19908 37.5538L8.20499 37.5732L8.20893 37.5933L8.21156 37.6134L8.21221 37.6375Z" fill="#2B2A29"/>
<path fill-rule="evenodd" clip-rule="evenodd" d="M10.3741 37.6375L10.3715 37.6603L10.3682 37.6777L10.3636 37.6951L10.3577 37.7125L10.3511 37.7286L10.3433 37.7447L10.3334 37.7594L10.321 37.7762L10.3104 37.7862L10.3039 37.7916L10.2967 37.797L10.2901 37.8023L10.2822 37.807L10.2743 37.8117L10.2665 37.8157L10.2592 37.8191L10.2507 37.8224L10.2415 37.8251L10.2317 37.8278L10.2225 37.8298L10.2126 37.8311L10.2021 37.8318L10.1923 37.8325H10.1824H9.76297H9.75312L9.74327 37.8318L9.73343 37.8311L9.72424 37.8298L9.71439 37.8285L9.7052 37.8258L9.69601 37.8238L9.68616 37.8204L9.67697 37.8164L9.6691 37.8124L9.66187 37.8084L9.654 37.803L9.64678 37.7983L9.63955 37.7923L9.63233 37.7862L9.62446 37.7782L9.61264 37.7641L9.60148 37.7481L9.59229 37.7306L9.58507 37.7125L9.57916 37.6931L9.57522 37.6737L9.5726 37.6536L9.57194 37.6301L9.57457 37.606L9.57785 37.5859L9.58244 37.5665L9.58835 37.5477L9.59623 37.5296L9.60608 37.5122L9.61724 37.4961L9.62971 37.4814L9.64415 37.4687L9.65925 37.458L9.67566 37.4492L9.69207 37.4419L9.7098 37.4372L9.72686 37.4338L9.74524 37.4318L9.76297 37.4312H9.80236V36.4282H9.16625V37.4312H9.2063L9.22336 37.4318L9.24109 37.4338L9.25881 37.4372L9.27588 37.4419L9.29229 37.4492L9.30805 37.4573L9.3238 37.468L9.33759 37.4807L9.35072 37.4948L9.36188 37.5109L9.37172 37.5276L9.3796 37.5457L9.38616 37.5645L9.39076 37.5832L9.39404 37.6027L9.39732 37.6268L9.39601 37.6502L9.39339 37.6703L9.38945 37.6904L9.38354 37.7092L9.37632 37.728L9.36647 37.7454L9.35597 37.7615L9.34415 37.7762L9.33627 37.7842L9.32971 37.7903L9.32249 37.7963L9.31527 37.8017L9.30739 37.8063L9.29951 37.811L9.29163 37.8157L9.28376 37.8191L9.27522 37.8224L9.26538 37.8251L9.25619 37.8278L9.24634 37.8298L9.23584 37.8311L9.22599 37.8318L9.21549 37.8325H9.20564H8.78617H8.77698L8.76647 37.8318L8.75728 37.8311L8.74744 37.8298L8.73759 37.8278L8.7284 37.8258L8.71921 37.8224L8.71067 37.8197L8.7028 37.8164L8.69492 37.8124L8.68639 37.8077L8.67851 37.803L8.67063 37.7976L8.66341 37.7916L8.65619 37.7856L8.64634 37.7762L8.63453 37.7601L8.62468 37.7447L8.6168 37.7286L8.61024 37.7119L8.60499 37.6951L8.60039 37.6777L8.59711 37.6596L8.59448 37.6375L8.5958 37.6127L8.59776 37.5926L8.6017 37.5725L8.60761 37.5531L8.61549 37.5343L8.62468 37.5169L8.63518 37.5008L8.64765 37.4854L8.6621 37.4714L8.67785 37.46L8.69492 37.4506L8.71199 37.4432L8.73037 37.4372L8.74875 37.4338L8.76713 37.4318L8.78551 37.4312H8.82555V36.4282H8.82293H8.81308L8.80323 36.4275L8.79339 36.4269L8.7842 36.4255L8.77435 36.4235L8.76516 36.4209L8.75597 36.4182L8.74744 36.4148L8.73956 36.4121L8.73102 36.4081L8.72315 36.4034L8.71527 36.3987L8.70739 36.3934L8.70017 36.3874L8.69295 36.3813L8.68376 36.3726L8.67129 36.3572L8.66144 36.3418L8.65356 36.325L8.64634 36.3076L8.64109 36.2902L8.6365 36.2721L8.63387 36.254L8.63124 36.2306L8.6319 36.2071L8.63453 36.187L8.63846 36.1669L8.64372 36.1475L8.65159 36.1287L8.66078 36.1107L8.67194 36.0939L8.68442 36.0792L8.69886 36.0651L8.71461 36.0537L8.73102 36.0443L8.74875 36.037L8.76647 36.0316L8.78485 36.0276L8.80389 36.0256L8.82227 36.0249H10.1463H10.1555L10.1647 36.0256L10.1739 36.0262L10.1838 36.0276L10.1929 36.0289L10.2021 36.0309L10.2113 36.0336L10.2205 36.0363L10.2291 36.0396L10.2376 36.0437L10.2461 36.0483L10.2547 36.0537L10.2625 36.0591L10.2704 36.0658L10.2783 36.0731L10.2855 36.0805L10.2967 36.0946L10.3072 36.1113L10.317 36.1287L10.3242 36.1475L10.3301 36.1669L10.3341 36.187L10.3367 36.2071L10.3374 36.2312L10.3347 36.254L10.3315 36.2721L10.3275 36.2902L10.3216 36.3076L10.3144 36.325L10.3065 36.3411L10.2967 36.3565L10.2842 36.3726L10.2743 36.382L10.2678 36.3874L10.2606 36.3934L10.2533 36.3981L10.2461 36.4028L10.2382 36.4075L10.2304 36.4115L10.2225 36.4148L10.2146 36.4182L10.2048 36.4209L10.1956 36.4235L10.1857 36.4255L10.1759 36.4269L10.166 36.4275L10.1562 36.4282H10.1463H10.1437V37.4312H10.1824H10.1916L10.2015 37.4318L10.2107 37.4325L10.2199 37.4338L10.2291 37.4352L10.2389 37.4372L10.2481 37.4399L10.2566 37.4426L10.2652 37.4459L10.2743 37.4499L10.2829 37.4546L10.2914 37.46L10.2993 37.4653L10.3072 37.472L10.315 37.4794L10.3216 37.4868L10.3334 37.5008L10.3439 37.5176L10.3531 37.535L10.361 37.5538L10.3669 37.5732L10.3708 37.5933L10.3728 37.6134L10.3741 37.6375Z" fill="#2B2A29"/>
<path fill-rule="evenodd" clip-rule="evenodd" d="M11.7641 37.0312H11.7523H11.7405H11.7287H11.7168H11.5534H11.5389H11.5245H11.5101H11.4963H11.4825H11.4687H11.4556H11.4424L11.43 37.0345H11.4175L11.4057 37.0379H11.3932H11.382L11.3702 37.0419L11.3591 37.0459L11.3486 37.0499L11.3381 37.0546L11.3276 37.0593L11.3171 37.064L11.3072 37.0694L11.298 37.0747L11.2888 37.0801L11.2796 37.0854L11.2705 37.0915L11.2619 37.0975L11.2534 37.1035L11.2455 37.1102L11.237 37.1169L11.2291 37.1243L11.2186 37.1343L11.2087 37.1437L11.2002 37.1531L11.1923 37.1625L11.1858 37.1719L11.1799 37.1812L11.174 37.1906L11.1694 37.2L11.1654 37.2087L11.1621 37.2181V37.2275V37.2369V37.2469V37.257V37.267V37.2992V37.3092V37.3186V37.3273V37.3367V37.3454L11.1654 37.3534V37.3615L11.1694 37.3695L11.174 37.3775L11.1792 37.3856L11.1845 37.393L11.1904 37.401L11.1969 37.4084L11.2042 37.4164L11.2107 37.4231L11.2186 37.4291L11.2265 37.4352L11.235 37.4405L11.2442 37.4459L11.254 37.4512L11.2652 37.4553L11.277 37.46H11.2895L11.3026 37.4633H11.3164H11.3308H11.3466H11.363H11.4333H11.451H11.468H11.4851H11.5015L11.5186 37.46L11.535 37.4559L11.5514 37.4519L11.5672 37.4466L11.5829 37.4412L11.5987 37.4352L11.6144 37.4291L11.6295 37.4218L11.6453 37.4144L11.6604 37.4064L11.6755 37.3976L11.6912 37.3883L11.7063 37.3789L11.7221 37.3682L11.7378 37.3574L11.7536 37.3454L11.7694 37.3333L11.7851 37.3199L11.8009 37.3065L11.8173 37.2925L11.8337 37.2777L11.8494 37.2623L11.8659 37.2462L11.8823 37.2295L11.8941 37.2174V37.0365H11.8855H11.8764H11.8665H11.8567H11.8468H11.837H11.8271H11.8166H11.8061H11.7963H11.7851H11.7733L11.7641 37.0312ZM12.3155 37.8351H11.8974V37.734L11.8823 37.744L11.8639 37.7561L11.8462 37.7668L11.8278 37.7782L11.8094 37.7882L11.791 37.7983L11.7726 37.8077L11.7536 37.8164L11.7352 37.8251L11.7162 37.8331L11.6978 37.8405L11.6788 37.8472L11.6597 37.8539L11.6407 37.8599L11.6217 37.866L11.6026 37.8706L11.5829 37.8753L11.5639 37.8794L11.5442 37.8834H11.5252H11.5055H11.4858H11.4661H11.4464H11.3564H11.3407H11.3249H11.3098H11.2947H11.2796H11.2645H11.2501L11.2357 37.88L11.2212 37.876L11.2074 37.872L11.193 37.8673L11.1792 37.8626L11.1661 37.8572L11.1529 37.8519L11.1398 37.8465L11.1267 37.8398L11.1136 37.8338L11.1011 37.8271L11.0886 37.8197L11.0768 37.8124L11.0643 37.805L11.0525 37.7969L11.0407 37.7882L11.0295 37.7795L11.0177 37.7708L11.0066 37.7614L10.9961 37.7514L10.9849 37.7413L10.9737 37.7306L10.9632 37.7186L10.9534 37.7078L10.9442 37.6964L10.935 37.6857L10.9265 37.6737L10.9179 37.6623L10.9101 37.6502L10.9022 37.6382L10.8943 37.6261L10.8871 37.6134L10.8805 37.6006L10.874 37.5879L10.8674 37.5745L10.8615 37.5618L10.8556 37.5484L10.8503 37.535L10.8451 37.5209L10.8405 37.5069L10.8365 37.4935L10.8319 37.4787V37.4646L10.828 37.4506V37.4358V37.4211V37.4064V37.3909V37.3762V37.3615V37.3461V37.265V37.2482V37.2315V37.2147V37.198V37.1812V37.1645L10.8319 37.1484L10.8359 37.1323L10.8405 37.1163L10.8451 37.1002L10.8503 37.0848L10.8562 37.0694L10.8621 37.054L10.8687 37.0385L10.8753 37.0231L10.8825 37.0084L10.8904 36.9943L10.8982 36.9796L10.9068 36.9655L10.916 36.9514L10.9252 36.9374L10.9343 36.9233L10.9442 36.9099L10.9547 36.8965L10.9652 36.8831L10.9764 36.8704L10.9882 36.8577L10.9993 36.8449L11.0118 36.8322L11.0249 36.8195L11.0381 36.8074L11.0512 36.796L11.065 36.7853L11.0788 36.7746L11.0932 36.7639L11.1077 36.7545L11.1221 36.7444L11.1372 36.7357L11.1529 36.727L11.1687 36.7183L11.1845 36.7103L11.2009 36.7029L11.2173 36.6955L11.2343 36.6881L11.2514 36.6814L11.2685 36.6754H11.2777H11.2869H11.2954H11.3046H11.3144H11.3236H11.3328H11.342H11.3519H11.3617H11.3709H11.3807H11.3906H11.4004H11.4103H11.4208H11.4306H11.4405H11.451H11.4615H11.472H11.4825H11.6998H11.7103H11.7214H11.7339H11.7477H11.7628H11.7792H11.7917H11.8311H11.8429H11.854H11.8659H11.877H11.8823H11.8875H11.8941H11.9V36.5588V36.5515V36.5441V36.5367V36.5294L11.8967 36.522V36.5146L11.8921 36.5073L11.8875 36.4999L11.8823 36.4925L11.8764 36.4851L11.8698 36.4771L11.8626 36.4697L11.8554 36.4624L11.8475 36.4557L11.8396 36.4496L11.8304 36.4436L11.8206 36.4376L11.8101 36.4322L11.7982 36.4275L11.7858 36.4228L11.772 36.4182L11.7575 36.4141H11.7418H11.7254H11.7077H11.6893H11.6702H11.5777H11.5678H11.558H11.5475H11.537H11.5265H11.5153H11.5041H11.493H11.4812H11.4687L11.4569 36.4175H11.4438H11.4313L11.4182 36.4215H11.405L11.3912 36.4255L11.3775 36.4302L11.363 36.4342L11.3486 36.4389L11.3341 36.4443L11.319 36.449L11.2908 36.4463L11.2757 36.4517L11.2599 36.4577L11.2442 36.463L11.2271 36.4697H11.2199H11.214H11.2074H11.2022H11.1969H11.1917H11.1871H11.1825H11.1785H11.1746H11.1707H11.1667H11.1621H11.1575H11.1529H11.1411H11.1201L11.1044 36.4664L11.0886 36.4617L11.0735 36.455L11.0597 36.447L11.0459 36.4376L11.0322 36.4269L11.0164 36.4121L11.0039 36.3954L10.9947 36.38L10.9875 36.3639L10.9816 36.3471L10.9764 36.3304L10.9724 36.313V36.2962V36.2741V36.2513V36.2332L10.9757 36.2152L10.9803 36.1971L10.9862 36.1796L10.9934 36.1636L11.0026 36.1475L11.0131 36.1327L11.0223 36.122L11.0328 36.1133L11.0427 36.1059L11.0525 36.0992L11.063 36.0932L11.0748 36.0872L11.0866 36.0812L11.0998 36.0751L11.1136 36.0698L11.128 36.0637L11.1438 36.0577L11.1608 36.0517L11.1785 36.0457L11.1969 36.0389L11.2173 36.0329L11.2376 36.0262L11.2527 36.0215L11.2678 36.0168L11.2823 36.0128L11.2967 36.0081L11.3112 36.0041L11.3249 36.0001L11.3394 35.9961L11.3525 35.992L11.3663 35.9887H11.3794L11.3926 35.9854H11.4057H11.4188H11.4313H11.4431H11.4556H11.4674H11.4792H11.491H11.5022H11.5133H11.5245H11.535H11.5462H11.5534H11.5632H11.5737H11.5836H11.6551H11.6715H11.6847H11.7011H11.7168H11.7326H11.7483H11.7634H11.7792L11.7943 35.9887L11.8087 35.9927L11.8238 35.9967L11.8383 36.0014L11.8527 36.0061L11.8665 36.0115L11.881 36.0175L11.8947 36.0229L11.9085 36.0296L11.9217 36.0363L11.9348 36.043L11.9479 36.0503L11.961 36.0584L11.9735 36.0664L11.986 36.0745L11.9978 36.0838L12.0096 36.0925L12.0214 36.1019L12.0333 36.112L12.0444 36.122L12.0556 36.1327L12.0661 36.1435L12.0766 36.1542L12.0864 36.1656L12.0956 36.1763L12.1055 36.1877L12.114 36.1991L12.1232 36.2105L12.1317 36.2219L12.1396 36.2339L12.1475 36.2453L12.1554 36.2574L12.1626 36.2701L12.1691 36.2821L12.1764 36.2949L12.1823 36.3069L12.1882 36.3197L12.1941 36.3331L12.1993 36.3458L12.2046 36.3592L12.2092 36.3726L12.2138 36.386L12.2177 36.3994L12.221 36.4128L12.2249 36.4269V36.4403V36.4543V36.4684V36.4825V36.4972V36.5113V37.4291H12.3076H12.3247H12.3418L12.3589 37.4338L12.3753 37.4405L12.391 37.4479L12.4061 37.4573L12.4238 37.4707L12.4383 37.4868L12.4494 37.5028L12.4586 37.5196L12.4665 37.5377L12.4724 37.5564L12.477 37.5759V37.5953V37.6194V37.6522V37.6723L12.4731 37.6924L12.4672 37.7112L12.4593 37.7299L12.4501 37.7474L12.4396 37.7634L12.4284 37.7768L12.4219 37.7842L12.4146 37.7916L12.4074 37.7983L12.3996 37.8043L12.3917 37.8097L12.3831 37.8144L12.3753 37.8184L12.3661 37.8224H12.3562H12.347H12.3372H12.3273H12.3175H12.2978L12.3155 37.8351Z" fill="#2B2A29"/>
<path fill-rule="evenodd" clip-rule="evenodd" d="M15.7845 37.8349L15.7747 37.8356L15.7642 37.8363H15.7543H15.3388H15.329L15.3191 37.8356L15.3093 37.8343L15.2994 37.8329L15.2902 37.8309L15.281 37.8289L15.2712 37.8262L15.2633 37.8229L15.2561 37.8202L15.2476 37.8162L15.239 37.8115L15.2311 37.8068L15.2233 37.8014L15.2154 37.7954L15.2082 37.7894L15.1983 37.7793L15.1865 37.7632L15.1767 37.7485L15.1688 37.7324L15.1622 37.7157L15.157 37.6989L15.1524 37.6815L15.1497 37.6641L15.1465 37.6413L15.1478 37.6172L15.1497 37.5964L15.1537 37.5763L15.1596 37.5569L15.1668 37.5381L15.176 37.5207L15.1865 37.5046L15.1996 37.4892L15.2121 37.4765L14.8701 37.0638L14.8379 37.096V37.8363H14.4303H14.4204L14.4106 37.8356L14.4007 37.8343L14.3909 37.8329L14.3817 37.8309L14.3725 37.8289L14.3633 37.8262L14.3548 37.8229L14.3469 37.8195L14.3384 37.8155L14.3305 37.8115L14.3226 37.8061L14.3147 37.8008L14.3075 37.7954L14.3003 37.7894L14.2904 37.7793L14.278 37.7632L14.2688 37.7485L14.2609 37.7324L14.2537 37.7157L14.2484 37.6989L14.2445 37.6815L14.2412 37.6641L14.2386 37.6413L14.2392 37.6172L14.2419 37.5964L14.2458 37.5763L14.2511 37.5569L14.2589 37.5381L14.2681 37.52L14.2786 37.504L14.2918 37.4886L14.3062 37.4752L14.322 37.4631L14.3384 37.4537L14.3561 37.4463L14.3738 37.441L14.3922 37.437L14.4112 37.435L14.4296 37.4343H14.4966V36.432H14.4303H14.4204L14.4106 36.4313L14.4014 36.43L14.3915 36.4293L14.3823 36.4273L14.3732 36.4253L14.364 36.4226L14.3541 36.4193L14.3456 36.4153L14.3377 36.4112L14.3298 36.4072L14.3226 36.4025L14.3154 36.3978L14.3088 36.3925L14.3016 36.3871L14.2911 36.3777L14.278 36.361L14.2688 36.3456L14.2602 36.3295L14.2537 36.3128L14.2484 36.2953L14.2445 36.2779L14.2412 36.2598L14.2386 36.2371L14.2392 36.2129L14.2412 36.1928L14.2452 36.1727L14.2511 36.1533L14.2583 36.1345L14.2675 36.1165L14.278 36.0997L14.2911 36.0843L14.3062 36.0702L14.322 36.0588L14.339 36.0495L14.3561 36.0421L14.3738 36.0367L14.3922 36.0327L14.4112 36.0307L14.4296 36.03H14.8379V36.5794L15.0368 36.3811L15.0336 36.3777L15.0211 36.3623L15.0099 36.3463L15.0007 36.3288L14.9935 36.3101L14.9876 36.2906L14.9837 36.2706L14.9817 36.2505L14.9804 36.2257L14.983 36.2029L14.9863 36.1855L14.9902 36.168L14.9961 36.1506L15.0027 36.1345L15.0106 36.1185L15.0198 36.1031L15.0329 36.0863L15.0493 36.0709L15.0651 36.0595L15.0815 36.0501L15.0985 36.0428L15.1169 36.0367L15.1346 36.0334L15.1537 36.0307L15.1714 36.03H15.5883L15.6007 36.0307L15.6132 36.0314L15.6257 36.0327L15.6375 36.0354L15.6493 36.0381L15.6611 36.0414L15.6723 36.0454L15.6841 36.0515L15.6913 36.0555L15.6966 36.0588L15.7018 36.0622L15.7064 36.0662L15.711 36.0696L15.7156 36.0736L15.7202 36.0776L15.7268 36.0843L15.7399 36.0997L15.7504 36.1151L15.7596 36.1325L15.7675 36.1506L15.7734 36.1701L15.778 36.1895L15.7806 36.2096L15.7812 36.2324L15.7786 36.2565L15.7753 36.2766L15.7707 36.2953L15.7648 36.3141L15.7576 36.3322L15.7484 36.3496L15.7373 36.3657L15.7235 36.3818L15.713 36.3905L15.7058 36.3958L15.6985 36.4012L15.6907 36.4052L15.6834 36.4099L15.6756 36.4133L15.6677 36.4166L15.6598 36.42L15.6513 36.4226L15.6427 36.4253L15.6335 36.4273L15.625 36.4287L15.6158 36.43L15.6066 36.4313L15.5974 36.432H15.5883H15.5121L15.1294 36.8072L15.6513 37.4343H15.755L15.7721 37.435L15.7891 37.437L15.8062 37.4403L15.8233 37.4457L15.8397 37.4517L15.8554 37.4597L15.8705 37.4691L15.8883 37.4819L15.9027 37.4979L15.9132 37.514L15.923 37.5308L15.9309 37.5489L15.9375 37.5676L15.9421 37.5864L15.9454 37.6065L15.948 37.6306L15.9473 37.654L15.9447 37.6748L15.9401 37.6942L15.9342 37.7137L15.9263 37.7318L15.9171 37.7492L15.9066 37.7653L15.8961 37.778L15.8902 37.7847L15.8823 37.7921L15.8751 37.7994L15.8666 37.8054L15.8587 37.8115L15.8502 37.8162L15.8416 37.8202L15.8331 37.8242L15.8239 37.8276L15.8141 37.8302L15.8042 37.8323L15.7944 37.8336L15.7845 37.8349Z" fill="#2B2A29"/>
<path fill-rule="evenodd" clip-rule="evenodd" d="M17.6213 36.936V36.8791V36.865V36.8516V36.8382V36.8248V36.8114V36.798L17.618 36.7853L17.6147 36.7726L17.6115 36.7598L17.6082 36.7478L17.6042 36.735L17.6003 36.723L17.5957 36.7109L17.5911 36.6989L17.5859 36.6868L17.5806 36.6754L17.5754 36.664L17.5694 36.652L17.5629 36.6406L17.557 36.6292L17.5498 36.6185L17.5432 36.6071L17.536 36.5964L17.5281 36.585L17.5202 36.5743L17.5123 36.5635L17.5038 36.5528L17.4953 36.5421L17.4861 36.532L17.4769 36.522L17.4684 36.5126L17.4592 36.5032L17.4493 36.4945L17.4401 36.4858L17.4309 36.4778L17.4211 36.4697L17.4112 36.4624L17.4014 36.455L17.3915 36.4483L17.3817 36.4423L17.3712 36.4356L17.3613 36.4295L17.3508 36.4242L17.3403 36.4188L17.3298 36.4141L17.3193 36.4094L17.3082 36.4054L17.297 36.4014L17.2859 36.3974H17.2747H17.2635H17.2517H17.2399H17.2281H17.2163H17.2038H17.192H17.1165H17.1047H17.0929H17.081H17.0692H17.0574H17.0463H17.0351H17.0239L17.0128 36.4014L17.0016 36.4054L16.9911 36.4094L16.9806 36.4141L16.9701 36.4188L16.9596 36.4242L16.9491 36.4295L16.9393 36.4356L16.9287 36.4423L16.9189 36.4483L16.9091 36.4557L16.8992 36.4624L16.8894 36.4704L16.8795 36.4778L16.8697 36.4865L16.8605 36.4945L16.8506 36.5039L16.8414 36.5126L16.8322 36.5227L16.8231 36.5327L16.8139 36.5428L16.8053 36.5535L16.7968 36.5642L16.7883 36.5749L16.7804 36.5856L16.7725 36.5964L16.7653 36.6078L16.7581 36.6185L16.7515 36.6299L16.7449 36.6412L16.739 36.6526L16.7331 36.664L16.7272 36.6761L16.722 36.6875L16.7167 36.6995L16.7121 36.7116L16.7075 36.723L16.7036 36.7357L16.6996 36.7478L16.6957 36.7605V36.7726L16.6924 36.7853V36.7987V36.8114V36.8248V36.8382V36.8516V36.865V36.8791V36.8932V36.9823V36.9963V37.0097V37.0231V37.0372V37.0499V37.0633V37.0761V37.0895L16.6957 37.1022V37.1142L16.6996 37.127L16.7036 37.139L16.7075 37.1511L16.7121 37.1632L16.7174 37.1752L16.722 37.1873L16.7272 37.1993L16.7331 37.2107L16.739 37.2221L16.7449 37.2335L16.7515 37.2449L16.7581 37.2563L16.7653 37.2677L16.7725 37.2784L16.7804 37.2898L16.7883 37.3005L16.7968 37.3112L16.8053 37.3219L16.8145 37.3327L16.8231 37.3427L16.8322 37.3528L16.8414 37.3628L16.8513 37.3722L16.8605 37.3809L16.8703 37.3896L16.8795 37.3976L16.8894 37.4057L16.8992 37.4131L16.9091 37.4204L16.9189 37.4271L16.9287 37.4338L16.9393 37.4399L16.9491 37.4459L16.9596 37.4512L16.9701 37.4566L16.9806 37.462L16.9911 37.466L17.0016 37.4707L17.0128 37.4747L17.0239 37.478H17.0351L17.0463 37.4814H17.0574H17.0692H17.081H17.0929H17.1047H17.1165H17.2018H17.2136H17.2248H17.2366H17.2478H17.2589H17.2701H17.2813L17.2918 37.4774L17.3029 37.4734L17.3134 37.4693L17.3239 37.4646L17.3344 37.46L17.3305 37.4512L17.341 37.4459L17.3508 37.4399L17.3613 37.4338L17.3712 37.4271L17.381 37.4204L17.3909 37.4131L17.4007 37.4057L17.4106 37.3983L17.4204 37.3896L17.4296 37.3816L17.4395 37.3722L17.4487 37.3635L17.4585 37.3534L17.4677 37.344L17.4769 37.3333L17.4861 37.3233L17.4946 37.3126L17.5031 37.3018L17.511 37.2911L17.5189 37.2804L17.5261 37.269L17.5333 37.2583L17.5399 37.2469L17.5471 37.2355L17.553 37.2241L17.5589 37.2127L17.5648 37.2013L17.5701 37.1893L17.5754 37.1779L17.5799 37.1658L17.5845 37.1538L17.5891 37.141L17.5931 37.129L17.5964 37.1163L17.6003 37.1035L17.6036 37.0908V37.0781V37.0647V37.0513V37.0379V37.0245V37.0104V36.9963V36.9387L17.6213 36.936ZM17.9646 36.936V36.9823V37.0064V37.0298V37.054V37.0774V37.1009L17.9613 37.1236L17.9568 37.1464L17.9528 37.1692L17.9476 37.192L17.9423 37.2141L17.9364 37.2362L17.9298 37.2583L17.9226 37.2797L17.9154 37.3012L17.9075 37.3226L17.8996 37.3434L17.8904 37.3641L17.8813 37.3849L17.8714 37.405L17.8616 37.4251L17.8504 37.4452L17.8399 37.4646L17.8281 37.4841L17.8163 37.5028L17.8038 37.5216L17.7907 37.5404L17.7775 37.5584L17.7638 37.5765L17.7493 37.5946L17.7349 37.612L17.7198 37.6295L17.704 37.6455L17.6889 37.6616L17.6732 37.6777L17.6574 37.6924L17.641 37.7072L17.6252 37.7212L17.6082 37.7346L17.5918 37.7474L17.5747 37.7601L17.5576 37.7715L17.5274 37.7862L17.5104 37.7969L17.4926 37.807L17.4743 37.817L17.4565 37.8264L17.4382 37.8345L17.4191 37.8425L17.4007 37.8499L17.3817 37.8572L17.3627 37.8633L17.343 37.8693L17.3239 37.8747L17.3042 37.8794L17.2845 37.8834H17.2642H17.2445H17.2242H17.2038H17.1828H17.0994H17.0784H17.0581H17.0377H17.0174H16.997L16.9767 37.8794L16.957 37.8747L16.9373 37.8693L16.9182 37.8633L16.8986 37.8572L16.8795 37.8505L16.8611 37.8425L16.8421 37.8345L16.8237 37.8264L16.8053 37.817L16.7876 37.8077L16.7699 37.7969L16.7522 37.7862L16.7344 37.7748L16.7174 37.7634L16.7003 37.7507L16.6832 37.738L16.6668 37.7246L16.6504 37.7105L16.6347 37.6958L16.6189 37.681L16.6031 37.665L16.5874 37.6489L16.5723 37.6321L16.5572 37.6154L16.5428 37.598L16.529 37.5799L16.5152 37.5618L16.5021 37.5437L16.4889 37.5249L16.4765 37.5062L16.4646 37.4874L16.4535 37.468L16.4423 37.4486L16.4318 37.4285L16.4213 37.4084L16.4121 37.3883L16.4029 37.3675L16.3937 37.3467L16.3859 37.326L16.378 37.3045L16.3708 37.2831L16.3635 37.2616L16.3576 37.2395L16.3517 37.2174L16.3458 37.1953L16.3412 37.1725L16.3366 37.1498L16.3327 37.127L16.3294 37.1035V37.0807V37.0573V37.0332V37.0091V36.8637V36.8396V36.8161V36.7927V36.7692L16.3327 36.7458L16.3366 36.723L16.3412 36.7002L16.3465 36.6774L16.3517 36.6546L16.3576 36.6325L16.3642 36.6111L16.3708 36.589L16.3786 36.5676L16.3865 36.5461L16.3944 36.5253L16.4036 36.5046L16.4128 36.4838L16.4226 36.4637L16.4325 36.4436L16.443 36.4235L16.4541 36.4041L16.4659 36.3847L16.4778 36.3659L16.4902 36.3471L16.5034 36.3284L16.5165 36.3103L16.5303 36.2922L16.5447 36.2741L16.5592 36.2567L16.5743 36.2393L16.5894 36.2225L16.6051 36.2064L16.6209 36.191L16.6366 36.1763L16.6524 36.1616L16.6688 36.1475L16.6859 36.1341L16.7023 36.1214L16.7193 36.1086L16.7364 36.0966L16.7541 36.0858L16.7719 36.0745L16.7896 36.0644L16.8073 36.055L16.8257 36.0457L16.8441 36.0369L16.8624 36.0289L16.8815 36.0215L16.9005 36.0148L16.9196 36.0088L16.9393 36.0028L16.9583 35.9974L16.978 35.9927L16.9983 35.9887H17.018L17.0384 35.9854H17.0587H17.0791H17.0994H17.1204H17.1624H17.1828H17.2038H17.2242H17.2445L17.2642 35.9887H17.2845L17.3042 35.9927L17.3239 35.9974L17.343 36.0028L17.3627 36.0088L17.3817 36.0148L17.4007 36.0215L17.4191 36.0289L17.4382 36.0369L17.4559 36.0457L17.4743 36.055L17.4926 36.0644L17.5104 36.0745L17.5274 36.0852L17.5452 36.0966L17.5622 36.1086L17.5793 36.1207L17.5957 36.1341L17.6121 36.1475L17.6285 36.1609L17.6449 36.1756L17.6607 36.1904L17.6764 36.2064L17.6915 36.2219L17.7073 36.2386L17.7217 36.256L17.7368 36.2734L17.7506 36.2909L17.7651 36.3089L17.7782 36.327L17.7913 36.3458L17.8038 36.3646L17.8156 36.3833L17.8274 36.4027L17.8379 36.4222L17.8491 36.4423L17.8589 36.4624L17.8688 36.4825L17.878 36.5032L17.8872 36.524L17.895 36.5454L17.9029 36.5662L17.9101 36.5877L17.9174 36.6098L17.9239 36.6319L17.9298 36.654L17.9351 36.6768L17.9403 36.6989L17.9443 36.7216L17.9489 36.7451L17.9522 36.7685V36.792V36.8154V36.8396V36.863V36.8878V36.9367L17.9646 36.936Z" fill="#2B2A29"/>
<path fill-rule="evenodd" clip-rule="evenodd" d="M19.7001 37.7894L19.6923 37.7813L19.6804 37.7673L19.6699 37.7512L19.6608 37.7344L19.6529 37.7157L19.647 37.6969L19.643 37.6768L19.6404 37.6574L19.6397 37.6339L19.6424 37.6091L19.6457 37.5897L19.6503 37.5703L19.6568 37.5509L19.6647 37.5328L19.6739 37.5154L19.685 37.4993L19.6975 37.4845L19.712 37.4718L19.7277 37.4611L19.7435 37.4524L19.7605 37.4457L19.7776 37.4403L19.7953 37.437L19.8131 37.435L19.8308 37.4343H19.8321V37.0269L19.5308 37.8356L19.1769 37.8363L18.8684 37.0149V37.4343H18.8697L18.8875 37.435L18.9052 37.437L18.9222 37.4403L18.9393 37.4457L18.9564 37.4524L18.9721 37.4611L18.9872 37.4718L19.0017 37.4839L19.0141 37.4986L19.026 37.514L19.0352 37.5314L19.0437 37.5489L19.0496 37.5676L19.0548 37.587L19.0581 37.6065L19.0608 37.6306L19.0601 37.654L19.0575 37.6748L19.0529 37.6942L19.047 37.7137L19.0391 37.7318L19.0299 37.7492L19.0194 37.7653L19.0076 37.7793L19.0004 37.7867L18.9938 37.7934L18.9866 37.7994L18.9794 37.8048L18.9715 37.8101L18.9636 37.8148L18.9551 37.8189L18.9472 37.8222L18.9393 37.8256L18.9295 37.8289L18.9196 37.8309L18.9098 37.8329L18.8999 37.8343L18.8901 37.8356L18.8796 37.8363H18.8691H18.5257H18.5166L18.5067 37.8356L18.4969 37.8343L18.487 37.8329L18.4778 37.8309L18.4686 37.8289L18.4588 37.8262L18.4509 37.8229L18.443 37.8195L18.4345 37.8155L18.4266 37.8115L18.4181 37.8061L18.4109 37.8008L18.4036 37.7954L18.3964 37.7894L18.3859 37.7793L18.3741 37.7632L18.3649 37.7485L18.357 37.7324L18.3498 37.7157L18.3446 37.6983L18.3406 37.6808L18.3373 37.6634L18.3347 37.6406L18.3354 37.6165L18.338 37.5964L18.3419 37.5763L18.3478 37.5569L18.3551 37.5381L18.3643 37.52L18.3748 37.504L18.3872 37.4886L18.4017 37.4752L18.4181 37.4631L18.4345 37.4537L18.4522 37.4463L18.4699 37.441L18.4883 37.437L18.5074 37.435L18.5257 37.4343H18.5271V36.432H18.5264H18.5166L18.5067 36.4313L18.4975 36.4307L18.4877 36.4293L18.4785 36.428L18.4693 36.426L18.4601 36.4233L18.4503 36.42L18.4417 36.4159L18.4338 36.4119L18.4253 36.4072L18.4174 36.4019L18.4102 36.3958L18.4023 36.3898L18.3951 36.3824L18.3879 36.3751L18.3761 36.361L18.3656 36.3449L18.3564 36.3275L18.3485 36.3094L18.3426 36.29L18.338 36.2706L18.3354 36.2498L18.3347 36.2257L18.3373 36.2029L18.3406 36.1848L18.3452 36.1674L18.3505 36.15L18.3577 36.1325L18.3662 36.1165L18.3754 36.1017L18.3885 36.0843L18.4056 36.0689L18.4207 36.0582L18.4371 36.0488L18.4542 36.0421L18.4713 36.0367L18.4896 36.0334L18.508 36.0307L18.5257 36.03H18.9157L18.9341 36.0307L18.9524 36.0327L18.9708 36.0367L18.9885 36.0421L19.0063 36.0488L19.0227 36.0582L19.0384 36.0696L19.0529 36.083L19.0654 36.0977L19.0765 36.1138L19.0857 36.1312L19.0936 36.15L19.0995 36.1694L19.1034 36.1888L19.1061 36.2089L19.1067 36.2324L19.1041 36.2565L19.1008 36.2759L19.0969 36.2947L19.091 36.3134L19.0831 36.3315L19.0739 36.3489L19.0634 36.365L19.0509 36.3791L19.0443 36.3858L19.0384 36.3905L19.0325 36.3952L19.0266 36.3992L19.0207 36.4039L19.0148 36.4079L19.0109 36.4106L19.3522 37.3204L19.7074 36.422L19.7054 36.4213L19.7028 36.42L19.7001 36.4179L19.6969 36.4159L19.6936 36.4139L19.6903 36.4119L19.687 36.4099L19.6811 36.4059L19.6759 36.4019L19.6699 36.3978L19.6647 36.3932L19.6588 36.3885L19.6535 36.3838L19.6489 36.3791L19.6384 36.3677L19.6273 36.3516L19.6181 36.3342L19.6102 36.3161L19.6043 36.298L19.5997 36.2786L19.5964 36.2598L19.5938 36.2357L19.5951 36.2123L19.5971 36.1922L19.601 36.1721L19.6069 36.1526L19.6141 36.1339L19.6233 36.1158L19.6345 36.0997L19.647 36.0843L19.6614 36.0709L19.6772 36.0588L19.6942 36.0495L19.7113 36.0421L19.7297 36.0367L19.7481 36.0327L19.7664 36.0307L19.7848 36.03H20.1754L20.1931 36.0307L20.2109 36.0334L20.2292 36.0367L20.2463 36.0421L20.2634 36.0488L20.2798 36.0582L20.2955 36.0689L20.312 36.0843L20.3251 36.1017L20.3343 36.1165L20.3428 36.1325L20.35 36.15L20.3559 36.1674L20.3599 36.1848L20.3632 36.2029L20.3658 36.2257L20.3651 36.2498L20.3625 36.2699L20.3586 36.2893L20.3527 36.3087L20.3448 36.3268L20.3356 36.3442L20.3251 36.361L20.3126 36.3757L20.3054 36.3831L20.2982 36.3898L20.2916 36.3952L20.2844 36.4005L20.2765 36.4059L20.2686 36.4106L20.2608 36.4146L20.2529 36.4179L20.2443 36.4213L20.2345 36.4246L20.2246 36.4273L20.2148 36.4287L20.205 36.43L20.1951 36.4313L20.1846 36.432H20.1748H20.1734V37.4343H20.1748L20.1839 37.435H20.1931L20.2023 37.4356L20.2122 37.437L20.2214 37.439L20.2306 37.4403L20.2397 37.443L20.2489 37.4463L20.2575 37.4497L20.266 37.453L20.2745 37.4577L20.2831 37.4631L20.291 37.4685L20.2988 37.4752L20.3067 37.4825L20.3139 37.4906L20.3251 37.504L20.3362 37.5207L20.3454 37.5381L20.3527 37.5569L20.3586 37.5763L20.3625 37.5964L20.3651 37.6165L20.3658 37.6406L20.3632 37.6634L20.3599 37.6815L20.3553 37.6989L20.35 37.7163L20.3428 37.7324L20.3343 37.7485L20.3251 37.7632L20.3126 37.7793L20.3034 37.7887L20.2962 37.7947L20.2896 37.8008L20.2818 37.8054L20.2745 37.8108L20.2667 37.8148L20.2588 37.8189L20.2509 37.8222L20.243 37.8256L20.2332 37.8289L20.224 37.8309L20.2141 37.8329L20.2043 37.8343L20.1945 37.8356L20.1846 37.8363H20.1748H19.8314H19.8216L19.8117 37.8356L19.8019 37.8349L19.792 37.8336L19.7829 37.8316L19.7737 37.8296L19.7645 37.8269L19.7546 37.8235L19.7454 37.8195L19.7376 37.8155L19.7297 37.8115L19.7225 37.8068L19.7146 37.8014L19.7074 37.7961L19.7001 37.7894Z" fill="#2B2A29"/>
<path fill-rule="evenodd" clip-rule="evenodd" d="M22.5158 37.641L22.5132 37.6638L22.5099 37.6819L22.5053 37.6993L22.4994 37.716L22.4928 37.7328L22.4849 37.7482L22.4758 37.7629L22.4633 37.7804L22.4521 37.7897L22.4456 37.7958L22.439 37.8011L22.4318 37.8065L22.4239 37.8112L22.4167 37.8152L22.4088 37.8192L22.4009 37.8226L22.3924 37.8259L22.3832 37.8293L22.3734 37.8313L22.3642 37.8333L22.3543 37.8346L22.3445 37.836L22.334 37.8366H22.3241H21.9053H21.8955L21.8849 37.836L21.8751 37.8353L21.8659 37.834L21.8561 37.8319L21.8469 37.8299L21.8383 37.8273L21.8278 37.8239L21.8186 37.8199L21.8114 37.8159L21.8036 37.8118L21.7957 37.8072L21.7885 37.8018L21.7812 37.7964L21.774 37.7897L21.7661 37.7817L21.7543 37.7676L21.7438 37.7515L21.734 37.7348L21.7267 37.716L21.7208 37.6973L21.7169 37.6772L21.7143 37.6578L21.7136 37.6343L21.7162 37.6095L21.7195 37.5901L21.7241 37.5707L21.73 37.5512L21.7379 37.5331L21.7478 37.5157L21.7589 37.4996L21.7714 37.4849L21.7858 37.4722L21.8009 37.4615L21.8173 37.4527L21.8344 37.446L21.8515 37.4407L21.8685 37.4373L21.8869 37.4353L21.9046 37.4347H21.944V36.4324H21.3086V37.4347H21.348L21.365 37.4353L21.3828 37.4373L21.4005 37.4407L21.4176 37.446L21.434 37.4527L21.4504 37.4615L21.4655 37.4722L21.4799 37.4842L21.4924 37.499L21.5036 37.5144L21.5134 37.5318L21.5213 37.5492L21.5278 37.568L21.5324 37.5874L21.5364 37.6068L21.539 37.631L21.5377 37.6544L21.5357 37.6745L21.5311 37.6939L21.5252 37.7134L21.518 37.7314L21.5088 37.7489L21.4976 37.7649L21.4858 37.7804L21.4779 37.7877L21.4714 37.7944L21.4642 37.7998L21.4569 37.8051L21.4497 37.8105L21.4412 37.8152L21.4333 37.8192L21.4254 37.8226L21.4169 37.8259L21.4077 37.8293L21.3979 37.8313L21.388 37.8333L21.3782 37.8346L21.3677 37.836L21.3572 37.8366H21.3473H20.9278H20.9187L20.9088 37.836L20.899 37.8346L20.8891 37.8333L20.8799 37.8313L20.8701 37.8293L20.8609 37.8266L20.853 37.8232L20.8451 37.8199L20.8366 37.8159L20.8281 37.8118L20.8202 37.8065L20.813 37.8011L20.8051 37.7958L20.7979 37.7897L20.788 37.7797L20.7762 37.7636L20.767 37.7489L20.7585 37.7328L20.7519 37.716L20.7467 37.6986L20.7421 37.6812L20.7394 37.6638L20.7368 37.641L20.7375 37.6169L20.7394 37.5968L20.744 37.5767L20.7493 37.5573L20.7572 37.5385L20.7664 37.5204L20.7769 37.5043L20.7893 37.4889L20.8038 37.4755L20.8195 37.4635L20.8366 37.4541L20.8543 37.4467L20.872 37.4413L20.8904 37.4373L20.9095 37.4353L20.9278 37.4347H20.9672V36.4324H20.9646H20.9548L20.9449 36.4317L20.9351 36.4304L20.9259 36.429L20.916 36.4277L20.9068 36.425L20.8976 36.4223L20.8891 36.419L20.8812 36.4156L20.8727 36.4116L20.8648 36.4076L20.8569 36.4022L20.8491 36.3969L20.8418 36.3915L20.8346 36.3855L20.8254 36.3761L20.8136 36.3607L20.8031 36.3453L20.7952 36.3285L20.788 36.3118L20.7828 36.2937L20.7788 36.2763L20.7755 36.2575L20.7729 36.2347L20.7736 36.2106L20.7762 36.1905L20.7801 36.1711L20.7854 36.151L20.7933 36.1322L20.8025 36.1141L20.8136 36.0974L20.8261 36.0826L20.8405 36.0692L20.8563 36.0572L20.8734 36.0478L20.8904 36.0404L20.9088 36.0351L20.9272 36.0317L20.9456 36.0297L20.9639 36.0291H22.288H22.2972H22.3064L22.3162 36.0304L22.3254 36.0311L22.3346 36.0331L22.3438 36.0351L22.353 36.0371L22.3622 36.0404L22.3707 36.0438L22.3793 36.0478L22.3878 36.0518L22.3963 36.0572L22.4042 36.0632L22.4127 36.0699L22.42 36.0766L22.4272 36.0847L22.4383 36.0987L22.4495 36.1148L22.4587 36.1329L22.4659 36.151L22.4718 36.1704L22.4758 36.1905L22.4784 36.2106L22.479 36.2347L22.4764 36.2575L22.4738 36.2763L22.4692 36.2944L22.4633 36.3118L22.4567 36.3285L22.4482 36.3453L22.4383 36.36L22.4259 36.3768L22.416 36.3855L22.4095 36.3915L22.4022 36.3969L22.395 36.4022L22.3878 36.4069L22.3799 36.4109L22.372 36.415L22.3642 36.4183L22.3563 36.4217L22.3464 36.425L22.3372 36.427L22.3274 36.429L22.3176 36.4304L22.3077 36.4317L22.2979 36.4324H22.288H22.2854V37.4347H22.3241L22.3333 37.4353H22.3432L22.3523 37.436L22.3615 37.4373L22.3714 37.4393L22.3806 37.4407L22.3898 37.4434L22.3983 37.446L22.4068 37.4501L22.416 37.4534L22.4246 37.4581L22.4331 37.4635L22.4416 37.4695L22.4495 37.4762L22.4567 37.4836L22.4633 37.4909L22.4751 37.5043L22.4856 37.5211L22.4948 37.5385L22.5027 37.5573L22.5086 37.5767L22.5125 37.5968L22.5151 37.6169L22.5158 37.641Z" fill="#2B2A29"/>
<path fill-rule="evenodd" clip-rule="evenodd" d="M23.8398 37.0345H23.8274H23.8155H23.8037H23.7926H23.7808H23.614H23.5996H23.5851H23.5713H23.5576H23.5438H23.5306H23.5182H23.505H23.4926H23.4808H23.4689L23.4571 37.0385H23.446L23.4348 37.0426L23.4236 37.0473L23.4131 37.0513L23.4026 37.056L23.3928 37.0613L23.3829 37.066L23.3731 37.0714L23.3639 37.0767L23.3547 37.0828L23.3455 37.0888L23.337 37.0948L23.3285 37.1009L23.3206 37.1076L23.3127 37.1142L23.3042 37.121L23.2937 37.131L23.2838 37.1404L23.2753 37.1504L23.2681 37.1598L23.2608 37.1685L23.2549 37.1779L23.2497 37.1873L23.2444 37.1967L23.2405 37.206V37.2154L23.2372 37.2248V37.2342V37.2436V37.2536V37.3059V37.3152V37.3246V37.3333V37.342V37.3501L23.2412 37.3588L23.2451 37.3668L23.249 37.3749L23.2543 37.3822L23.2595 37.3903L23.2654 37.3976L23.272 37.4057L23.2792 37.4131L23.2864 37.4198L23.2937 37.4265L23.3015 37.4318L23.3101 37.4378L23.3193 37.4432L23.3298 37.4479L23.3403 37.4526L23.3521 37.4566L23.3646 37.4606H23.3777H23.3915H23.4066H23.4217H23.4381H23.509H23.526H23.5431H23.5602H23.5773H23.5937L23.6101 37.4573L23.6265 37.4526L23.6422 37.4479L23.6587 37.4425L23.6744 37.4365L23.6895 37.4298L23.7053 37.4231L23.7204 37.4157L23.7355 37.4077L23.7512 37.399L23.7663 37.3896L23.7814 37.3796L23.7972 37.3695L23.8129 37.3581L23.8287 37.3467L23.8444 37.334L23.8602 37.3213L23.8766 37.3079L23.895 37.3173L23.9114 37.3025L23.9278 37.2871L23.9442 37.271L23.9606 37.2503L23.9718 37.2382V37.0573H23.9632H23.9541H23.9442H23.935H23.9252H23.9147H23.9048H23.8943H23.8838H23.874H23.8628H23.851L23.8398 37.0345ZM24.3906 37.8385H23.9724V37.7367L23.9573 37.7474L23.9396 37.7588L23.9212 37.7702L23.9029 37.7809L23.8845 37.7916L23.8661 37.801L23.8477 37.8103L23.8293 37.8197L23.8103 37.8278L23.7919 37.8358L23.7729 37.8432L23.7538 37.8505L23.7348 37.8572L23.7158 37.8633L23.6967 37.8686L23.6777 37.874L23.6587 37.8787L23.639 37.8827L23.6199 37.8861H23.6002H23.5805H23.5608H23.5418H23.4355H23.4197H23.4039H23.3882H23.3731H23.358H23.3436L23.3285 37.8827H23.314L23.2996 37.8794L23.2858 37.8747L23.272 37.8706L23.2582 37.8653L23.2444 37.8606L23.2313 37.8552L23.2182 37.8492L23.205 37.8432L23.1926 37.8365L23.1801 37.8298L23.1676 37.8231L23.1552 37.8157L23.1433 37.8077L23.1309 37.7996L23.1197 37.7916L23.1079 37.7829L23.0967 37.7735L23.0856 37.7641L23.0744 37.7547L23.0639 37.7447L23.0521 37.7333L23.0416 37.7219L23.0324 37.7112L23.0226 37.6998L23.014 37.6884L23.0048 37.677L22.997 37.665L22.9884 37.6536L22.9805 37.6408L22.9733 37.6288L22.9661 37.6167L22.9589 37.604L22.9523 37.5906L22.9457 37.5779L22.9398 37.5645L22.9346 37.5511L22.9287 37.5377L22.9241 37.5243L22.9195 37.5102L22.9149 37.4961L22.911 37.4821L22.907 37.468L22.9037 37.4533L22.9005 37.4385V37.4238V37.409V37.3943V37.3796V37.3641V37.3487V37.2683V37.2509V37.2342V37.2174V37.2007V37.1839V37.1678L22.9037 37.1511L22.9077 37.135L22.9103 37.1163L22.9149 37.1002L22.9201 37.0841L22.9261 37.0687L22.932 37.0533L22.9385 37.0379L22.9457 37.0231L22.953 37.0084L22.9602 36.9937L22.9687 36.9789L22.9773 36.9648L22.9858 36.9508L22.995 36.9367L23.0048 36.9233L23.0147 36.9092L23.0245 36.8958L23.0357 36.8831L23.0462 36.8697L23.058 36.857L23.0698 36.8443L23.0816 36.8322L23.0948 36.8195L23.1079 36.8067L23.121 36.7953L23.1348 36.7846L23.1486 36.7739L23.163 36.7639L23.1775 36.7538L23.1926 36.7444L23.2077 36.735L23.2228 36.7263L23.2385 36.7143L23.2543 36.7062L23.2707 36.6982L23.2871 36.6908L23.3042 36.6841L23.3212 36.6774L23.3383 36.6714H23.3475H23.3567H23.3659H23.3751H23.3843H23.3934H23.4026H23.4125H23.4217H23.4315H23.4414H23.4506H23.4604H23.4703H23.4808H23.4906H23.5004H23.511H23.5208H23.5313H23.5418H23.5523H23.5628H23.7801H23.7913H23.8044H23.8182H23.8326H23.849H23.8615H23.8897H23.9009H23.9127H23.9245H23.9357H23.9468H23.9521H23.958H23.9639H23.9711V36.5622V36.5548V36.5468V36.5394V36.532V36.5253V36.518L23.9678 36.5106L23.9639 36.5032L23.9593 36.4959L23.9534 36.4878L23.9481 36.4805L23.9409 36.4731L23.9344 36.4651L23.9265 36.4577L23.9186 36.451L23.9107 36.4449L23.9022 36.4389L23.8923 36.4336L23.8812 36.4282L23.8694 36.4228L23.8569 36.4182L23.8431 36.4141L23.8287 36.4101H23.8129H23.7965H23.7794H23.7611H23.7414H23.658H23.6488H23.639H23.6291H23.6193H23.6088H23.5976H23.5871H23.5759H23.5641H23.5523H23.5405H23.528H23.5155L23.5024 36.4141H23.4893L23.4762 36.4182L23.4624 36.4222L23.4486 36.4262L23.4348 36.4309L23.4204 36.4356L23.4053 36.4403L23.3908 36.4456L23.3751 36.451L23.36 36.4563L23.3442 36.4617L23.3285 36.4677L23.3114 36.4738H23.3048H23.2983H23.2924H23.2864H23.2812H23.2766H23.2713H23.2674H23.2628H23.2589H23.2549H23.251H23.2385H23.2339H23.2293H23.2169H23.1965H23.1801L23.1643 36.4684L23.1499 36.4624L23.1355 36.4537L23.1217 36.4443L23.1085 36.4342L23.0921 36.4188L23.0797 36.4021L23.0711 36.3867L23.0633 36.3706L23.0573 36.3538L23.0527 36.3371L23.0488 36.3203V36.3029V36.2808V36.2587V36.2399V36.2219L23.0534 36.2044L23.0593 36.187L23.0672 36.1703L23.0757 36.1549L23.0862 36.1394L23.0961 36.1287L23.1059 36.12L23.1158 36.1126L23.1263 36.1059L23.1368 36.0999L23.1479 36.0939L23.1597 36.0885L23.1729 36.0825L23.1867 36.0765L23.2011 36.0704L23.2169 36.0651L23.2339 36.0584L23.2517 36.0523L23.2707 36.0463L23.2904 36.0396L23.3107 36.0336L23.3258 36.0289L23.3409 36.0242L23.3554 36.0195L23.3698 36.0148L23.3843 36.0108L23.3987 36.0068L23.4125 36.0028L23.4263 35.9994L23.4394 35.9954L23.4532 35.992H23.4663L23.4788 35.9887H23.4919H23.5044L23.5169 35.9854H23.5287H23.5411H23.5523H23.5641H23.5753H23.5864H23.5976H23.6088H23.6193H23.6298H23.6403H23.7479H23.7643H23.7808H23.7965H23.8123H23.828H23.8438L23.8589 35.9887H23.874L23.8891 35.9927L23.9035 35.9967L23.918 36.0014L23.9324 36.0061L23.9468 36.0115L23.9606 36.0168L23.9744 36.0229L23.9882 36.0289L24.0013 36.0356L24.0151 36.043L24.0276 36.0503L24.0407 36.0577L24.0532 36.0657L24.0657 36.0745L24.0775 36.0832L24.0899 36.0925L24.1018 36.1019L24.1129 36.112L24.1241 36.122L24.1352 36.1327L24.1457 36.1435L24.1562 36.1542L24.1661 36.1649L24.1759 36.1763L24.1851 36.187L24.1943 36.1984L24.2029 36.2098L24.2114 36.2219L24.2193 36.2332L24.2271 36.2453L24.235 36.2574L24.2422 36.2694L24.2495 36.2821L24.256 36.2942L24.2626 36.3069L24.2685 36.3197L24.2737 36.3324L24.2797 36.3458L24.2843 36.3585L24.2888 36.3719L24.2934 36.3853L24.2974 36.3987L24.3013 36.4128L24.3046 36.4262V36.4403V36.4543V36.4684V36.4825V36.4965V36.5106V37.4285H24.3873H24.4044L24.4221 37.4318L24.4385 37.4372L24.4549 37.4432L24.4707 37.4512L24.4858 37.4606L24.5035 37.4734L24.5179 37.4894L24.5291 37.5055L24.539 37.5229L24.5462 37.541L24.5527 37.5598L24.5573 37.5785L24.5606 37.598V37.6221V37.6455V37.6656L24.556 37.6851L24.5501 37.7045L24.5429 37.7226L24.533 37.74L24.5225 37.7568L24.5114 37.7702L24.5048 37.7775L24.4976 37.7842L24.4904 37.7909L24.4825 37.7969L24.4746 37.8023L24.4667 37.807L24.4582 37.8117L24.449 37.8157H24.4398H24.43H24.4201H24.4109H24.4011H24.3807L24.3906 37.8385Z" fill="#2B2A29"/>
<path fill-rule="evenodd" clip-rule="evenodd" d="M26.7229 37.6406L26.7203 37.6634L26.717 37.6815L26.7124 37.6989L26.7071 37.7157L26.6999 37.7324L26.692 37.7478L26.6828 37.7626L26.6704 37.78L26.6599 37.7894L26.6527 37.7954L26.6461 37.8008L26.6389 37.8061L26.6316 37.8108L26.6238 37.8148L26.6159 37.8189L26.608 37.8222L26.6001 37.8256L26.5903 37.8289L26.5811 37.8309L26.5712 37.8329L26.5614 37.8343L26.5516 37.8356L26.5411 37.8363H26.5319H26.1124H26.1025L26.0927 37.8356L26.0822 37.8349L26.073 37.8336L26.0638 37.8316L26.0546 37.8296L26.0454 37.8269L26.0356 37.8235L26.0264 37.8195L26.0185 37.8155L26.0106 37.8115L26.0034 37.8068L25.9955 37.8014L25.9883 37.7961L25.9811 37.7894L25.9732 37.7813L25.9614 37.7673L25.9509 37.7512L25.9417 37.7344L25.9338 37.7157L25.9279 37.6969L25.924 37.6768L25.9214 37.6574L25.9207 37.6339L25.9233 37.6091L25.9266 37.5897L25.9312 37.5703L25.9378 37.5509L25.9457 37.5328L25.9548 37.5154L25.966 37.4993L25.9785 37.4845L25.9929 37.4718L26.008 37.4611L26.0244 37.4524L26.0415 37.4457L26.0586 37.4403L26.0763 37.437L26.094 37.435L26.1117 37.4343H26.1511V37.0939H25.5157V37.4343H25.5551L25.5721 37.435L25.5905 37.437L25.6076 37.4403L25.6246 37.4457L25.6417 37.4524L25.6575 37.4611L25.6726 37.4718L25.687 37.4839L25.6995 37.4986L25.7113 37.514L25.7205 37.5314L25.7284 37.5489L25.7349 37.5676L25.7402 37.587L25.7435 37.6065L25.7461 37.6306L25.7454 37.654L25.7428 37.6741L25.7389 37.6936L25.733 37.713L25.7251 37.7311L25.7159 37.7485L25.7047 37.7646L25.6929 37.78L25.685 37.7874L25.6785 37.7941L25.6713 37.7994L25.664 37.8048L25.6568 37.8101L25.6489 37.8148L25.6404 37.8189L25.6325 37.8222L25.6246 37.8256L25.6148 37.8289L25.605 37.8309L25.5951 37.8329L25.5853 37.8343L25.5748 37.8356L25.5649 37.8363H25.5544H25.1349H25.1257L25.1159 37.8356L25.1061 37.8343L25.0962 37.8329L25.087 37.8309L25.0778 37.8289L25.0686 37.8262L25.0601 37.8229L25.0522 37.8195L25.0437 37.8155L25.0358 37.8115L25.0273 37.8061L25.0201 37.8008L25.0122 37.7954L25.0056 37.7894L24.9951 37.7793L24.9833 37.7632L24.9741 37.7485L24.9662 37.7324L24.959 37.7157L24.9538 37.6983L24.9498 37.6808L24.9465 37.6634L24.9439 37.6406L24.9446 37.6165L24.9472 37.5964L24.9511 37.5763L24.9564 37.5569L24.9643 37.5381L24.9734 37.52L24.984 37.504L24.9964 37.4886L25.0109 37.4752L25.0273 37.4631L25.0437 37.4537L25.0614 37.4463L25.0791 37.441L25.0975 37.437L25.1166 37.435L25.1349 37.4343H25.1743V36.432H25.1349H25.1257L25.1152 36.4313L25.1054 36.43L25.0955 36.4287L25.0857 36.4273L25.0765 36.4246L25.0667 36.422L25.0581 36.4186L25.0503 36.4153L25.0417 36.4112L25.0338 36.4066L25.0253 36.4012L25.0174 36.3958L25.0102 36.3891L25.003 36.3824L24.9951 36.3751L24.984 36.361L24.9734 36.3449L24.9643 36.3275L24.957 36.3087L24.9511 36.29L24.9472 36.2699L24.9446 36.2498L24.9439 36.2257L24.9459 36.2103L24.9465 36.2022L24.9485 36.1935L24.9498 36.1848L24.9518 36.1768L24.9538 36.1687L24.9564 36.16L24.959 36.152L24.9616 36.1439L24.9649 36.1352L24.9689 36.1272L24.9728 36.1185L24.9774 36.1104L24.9826 36.1031L24.9879 36.095L24.9964 36.0836L25.0128 36.0689L25.0286 36.0582L25.045 36.0488L25.0627 36.0421L25.0804 36.0367L25.0982 36.0327L25.1166 36.0307L25.1349 36.03H25.5544L25.5636 36.0307H25.5734L25.5826 36.0314L25.5925 36.0327L25.6017 36.034L25.6109 36.0361L25.6201 36.0387L25.6279 36.0414L25.6358 36.0441L25.645 36.0481L25.6535 36.0528L25.6621 36.0575L25.6699 36.0629L25.6778 36.0696L25.6857 36.0763L25.6929 36.0836L25.7047 36.0977L25.7159 36.1138L25.7251 36.1312L25.733 36.15L25.7389 36.1694L25.7428 36.1895L25.7454 36.2096L25.7461 36.233L25.7435 36.2565L25.7402 36.2759L25.7356 36.2953L25.7297 36.3134L25.7218 36.3315L25.7126 36.3483L25.7021 36.3643L25.6909 36.3777L25.6837 36.3851L25.6759 36.3911L25.6686 36.3972L25.6608 36.4025L25.6529 36.4079L25.645 36.4119L25.6365 36.4159L25.6286 36.4193L25.6201 36.422L25.6115 36.4246L25.6023 36.4273L25.5931 36.4287L25.5833 36.43L25.5741 36.4313L25.5643 36.432H25.5544H25.5157V36.6906H26.1511V36.432H26.1117L26.0947 36.4313L26.0769 36.4293L26.0592 36.4267L26.0422 36.4213L26.0251 36.4153L26.0093 36.4066L25.9936 36.3965L25.9791 36.3831L25.966 36.3684L25.9555 36.353L25.9457 36.3362L25.9378 36.3181L25.9312 36.2994L25.9266 36.2799L25.9233 36.2605L25.9207 36.2357L25.9214 36.2123L25.924 36.1922L25.9279 36.1721L25.9338 36.1526L25.9411 36.1339L25.9502 36.1158L25.9614 36.0997L25.9739 36.0843L25.9883 36.0709L26.0041 36.0588L26.0205 36.0495L26.0382 36.0421L26.0566 36.0367L26.0743 36.0327L26.0934 36.0307L26.1117 36.03H26.5319L26.5496 36.0307L26.568 36.0334L26.5863 36.0367L26.6034 36.0421L26.6205 36.0488L26.6369 36.0582L26.652 36.0689L26.6697 36.0843L26.6828 36.1024L26.692 36.1171L26.7006 36.1332L26.7071 36.15L26.713 36.1674L26.717 36.1848L26.7203 36.2029L26.7229 36.2257L26.7222 36.2498L26.7196 36.2699L26.7157 36.2893L26.7098 36.3087L26.7019 36.3268L26.6927 36.3442L26.6822 36.361L26.6697 36.3757L26.6625 36.3831L26.6553 36.3891L26.6487 36.3952L26.6408 36.4005L26.6336 36.4059L26.6257 36.4106L26.6179 36.4146L26.61 36.4179L26.6014 36.4213L26.5916 36.4246L26.5818 36.4273L26.5719 36.4287L26.5621 36.43L26.5522 36.4313L26.5417 36.432H26.5319H26.4925V37.4343H26.5319L26.5411 37.435H26.5502L26.5594 37.4356L26.5693 37.437L26.5785 37.439L26.5877 37.4403L26.5969 37.443L26.606 37.4457L26.6146 37.4497L26.6231 37.453L26.6316 37.4577L26.6402 37.4631L26.6487 37.4691L26.6566 37.4758L26.6638 37.4832L26.671 37.4906L26.6822 37.504L26.6927 37.5207L26.7019 37.5381L26.7098 37.5569L26.7157 37.5763L26.7196 37.5964L26.7222 37.6165L26.7229 37.6406Z" fill="#2B2A29"/>
<path fill-rule="evenodd" clip-rule="evenodd" d="M28.7905 37.8048L28.7827 37.8101L28.7754 37.8148L28.7669 37.8189L28.759 37.8222L28.7505 37.8256L28.7413 37.8289L28.7315 37.8309L28.7216 37.8329L28.7118 37.8343L28.7013 37.8356L28.6908 37.8363H28.6809H28.2614H28.2523L28.2424 37.8356L28.2326 37.8343L28.2227 37.8329L28.2135 37.8309L28.2037 37.8289L28.1945 37.8262L28.1866 37.8229L28.1787 37.8195L28.1702 37.8155L28.1617 37.8115L28.1538 37.8061L28.1466 37.8008L28.1387 37.7954L28.1321 37.7894L28.1216 37.7793L28.1098 37.7632L28.1006 37.7485L28.0921 37.7324L28.0855 37.7157L28.0803 37.6983L28.0757 37.6808L28.073 37.6634L28.0704 37.6406L28.0711 37.6165L28.073 37.5964L28.0776 37.5763L28.0829 37.5569L28.0908 37.5381L28.1 37.52L28.1105 37.504L28.1229 37.4886L28.1374 37.4752L28.1538 37.4631L28.1702 37.4537L28.1879 37.4463L28.2056 37.441L28.224 37.437L28.2431 37.435L28.2614 37.4343H28.3008V36.8769L27.7448 37.4383L27.7573 37.4403L27.7744 37.4457L27.7908 37.4524L27.8072 37.4611L27.8223 37.4718L27.8367 37.4839L27.8492 37.4986L27.8604 37.514L27.8702 37.5314L27.8781 37.5489L27.8846 37.5676L27.8892 37.587L27.8932 37.6065L27.8958 37.6306L27.8945 37.654L27.8925 37.6741L27.8879 37.6936L27.882 37.713L27.8748 37.7311L27.8656 37.7485L27.8544 37.7646L27.8426 37.78L27.8347 37.7874L27.8282 37.7941L27.821 37.7994L27.8137 37.8048L27.8059 37.8101L27.798 37.8148L27.7901 37.8189L27.7822 37.8222L27.7737 37.8256L27.7639 37.8289L27.7547 37.8309L27.7448 37.8329L27.735 37.8343L27.7245 37.8356L27.714 37.8363H27.7041H27.2846H27.2755L27.2656 37.8356L27.2558 37.8343L27.2459 37.8329L27.2367 37.8309L27.2269 37.8289L27.2177 37.8262L27.2098 37.8229L27.2013 37.8195L27.1934 37.8155L27.1849 37.8115L27.177 37.8061L27.1691 37.8008L27.1619 37.7954L27.1547 37.7894L27.1448 37.7793L27.133 37.7632L27.1238 37.7485L27.1153 37.7324L27.1087 37.7157L27.1035 37.6983L27.0989 37.6808L27.0956 37.6634L27.093 37.6406L27.0943 37.6165L27.0962 37.5964L27.1002 37.5763L27.1061 37.5569L27.114 37.5381L27.1232 37.52L27.1337 37.504L27.1461 37.4886L27.1606 37.4752L27.1763 37.4631L27.1934 37.4537L27.2105 37.4463L27.2288 37.441L27.2472 37.437L27.2656 37.435L27.284 37.4343H27.324V36.432H27.2846H27.2748L27.2649 36.4313L27.2551 36.43L27.2453 36.4287L27.2354 36.4273L27.2256 36.4246L27.2164 36.422L27.2078 36.4186L27.2 36.4153L27.1914 36.4112L27.1829 36.4066L27.175 36.4012L27.1671 36.3958L27.1593 36.3891L27.152 36.3824L27.1448 36.3751L27.1337 36.361L27.1232 36.3449L27.114 36.3275L27.1061 36.3087L27.1002 36.29L27.0962 36.2699L27.0943 36.2498L27.093 36.2257L27.0949 36.2103L27.0962 36.2022L27.0976 36.1935L27.0995 36.1848L27.1015 36.1768L27.1035 36.1687L27.1054 36.16L27.1081 36.152L27.1113 36.1439L27.1146 36.1352L27.1186 36.1272L27.1225 36.1185L27.1271 36.1104L27.1317 36.1031L27.1369 36.095L27.1461 36.0836L27.1625 36.0689L27.1783 36.0582L27.1947 36.0488L27.2118 36.0421L27.2295 36.0367L27.2479 36.0327L27.2663 36.0307L27.284 36.03H27.7041L27.7133 36.0307H27.7225L27.7323 36.0314L27.7415 36.0327L27.7507 36.034L27.7599 36.0361L27.7691 36.0387L27.7776 36.0414L27.7855 36.0441L27.794 36.0481L27.8032 36.0528L27.8111 36.0575L27.8197 36.0629L27.8275 36.0696L27.8347 36.0763L27.8426 36.0836L27.8544 36.0977L27.8649 36.1138L27.8748 36.1312L27.882 36.15L27.8879 36.1694L27.8925 36.1895L27.8945 36.2096L27.8958 36.233L27.8932 36.2565L27.8899 36.2759L27.8853 36.2953L27.8787 36.3134L27.8715 36.3315L27.8623 36.3483L27.8512 36.3643L27.84 36.3777L27.8328 36.3851L27.8256 36.3911L27.8183 36.3972L27.8105 36.4025L27.8026 36.4079L27.794 36.4119L27.7862 36.4159L27.7776 36.4193L27.7698 36.422L27.7606 36.4246L27.7514 36.4273L27.7422 36.4287L27.733 36.43L27.7232 36.4313L27.7133 36.432H27.7041H27.6654V36.9975L28.245 36.4313H28.2418L28.2319 36.43L28.2221 36.4287L28.2122 36.4273L28.203 36.4246L28.1932 36.422L28.1846 36.4186L28.1768 36.4153L28.1682 36.4112L28.1597 36.4066L28.1518 36.4012L28.1439 36.3958L28.1367 36.3891L28.1295 36.3824L28.1216 36.3751L28.1105 36.361L28.1 36.3449L28.0908 36.3275L28.0835 36.3087L28.0776 36.29L28.0737 36.2699L28.0711 36.2498L28.0704 36.2257L28.0717 36.2103L28.073 36.2022L28.075 36.1935L28.0763 36.1848L28.0783 36.1768L28.0803 36.1687L28.0829 36.16L28.0849 36.152L28.0881 36.1439L28.0914 36.1352L28.0954 36.1272L28.0993 36.1185L28.1039 36.1104L28.1091 36.1031L28.1137 36.0957L28.1229 36.0836L28.1393 36.0689L28.1551 36.0582L28.1715 36.0488L28.1886 36.0421L28.2063 36.0367L28.2247 36.0327L28.2431 36.0307L28.2608 36.03H28.6809L28.6901 36.0307H28.7L28.7091 36.0314L28.7183 36.0327L28.7282 36.034L28.7374 36.0361L28.7466 36.0387L28.7544 36.0414L28.7623 36.0441L28.7715 36.0481L28.78 36.0528L28.7886 36.0575L28.7965 36.0629L28.8043 36.0696L28.8122 36.0763L28.8194 36.0836L28.8312 36.0977L28.8417 36.1138L28.8516 36.1312L28.8595 36.15L28.8647 36.1694L28.8693 36.1895L28.8713 36.2096L28.8726 36.233L28.87 36.2565L28.8667 36.2759L28.8621 36.2953L28.8562 36.3134L28.8483 36.3315L28.8391 36.3483L28.8286 36.3643L28.8175 36.3777L28.8096 36.3851L28.8024 36.3911L28.7951 36.3972L28.7873 36.4025L28.7794 36.4079L28.7715 36.4119L28.763 36.4159L28.7551 36.4193L28.7466 36.422L28.738 36.4246L28.7288 36.4273L28.7196 36.4287L28.7098 36.43L28.7 36.4313L28.6908 36.432H28.6809H28.6422V37.4343H28.6816L28.6986 37.435L28.7164 37.437L28.7341 37.4403L28.7512 37.4457L28.7676 37.4524L28.784 37.4611L28.7991 37.4718L28.8135 37.4839L28.826 37.4986L28.8372 37.514L28.847 37.5314L28.8549 37.5489L28.8614 37.5676L28.8667 37.587L28.87 37.6065L28.8726 37.6306L28.8713 37.654L28.8693 37.6741L28.8647 37.6936L28.8595 37.713L28.8516 37.7311L28.8424 37.7485L28.8312 37.7646L28.8194 37.78L28.8116 37.7874L28.805 37.7941L28.7978 37.7994L28.7905 37.8048Z" fill="#2B2A29"/>
<path fill-rule="evenodd" clip-rule="evenodd" d="M30.9406 37.8049L30.9327 37.8103L30.9249 37.8149L30.917 37.819H30.9091L30.9006 37.8223H30.8907H30.8809H30.8717H30.8612H30.8513H30.3918H30.382H30.3728H30.3629H30.3537H30.3446L30.336 37.819H30.3281L30.3203 37.8149L30.3117 37.8109L30.3039 37.8056L30.296 37.8002L30.2888 37.7949L30.2815 37.7888L30.2717 37.7788L30.2599 37.7627L30.25 37.748L30.2421 37.7319L30.2356 37.7151L30.2303 37.6977L30.2257 37.6803L30.2225 37.6629V37.6401V37.616V37.5959L30.2264 37.5758L30.2323 37.5563L30.2395 37.5376L30.2487 37.5195L30.2599 37.5034L30.2723 37.488L30.2868 37.4746L30.3025 37.4625L30.3196 37.4532L30.3367 37.4458L30.3551 37.4404L30.3734 37.4364H30.3918H30.4496V36.879L29.8942 37.4404H29.906L29.9231 37.4458L29.9402 37.4525L29.9559 37.4612L29.971 37.4719L29.9855 37.484L29.9986 37.4987L30.0098 37.5141L30.019 37.5309L30.0275 37.549L30.0334 37.5677L30.0386 37.5872V37.6066V37.6307V37.6521V37.6722L30.0347 37.6917L30.0288 37.7111L30.0209 37.7292L30.0117 37.7466L30.0012 37.7634L29.9888 37.7781L29.9815 37.7855L29.9743 37.7922L29.9678 37.7975L29.9599 37.8029L29.9527 37.8083L29.9448 37.8129L29.9369 37.817H29.929L29.9205 37.8203H29.9106H29.9008H29.8909H29.8811H29.8713H29.4117H29.4019H29.3927H29.3829H29.3737H29.3645L29.3559 37.817H29.3481L29.3395 37.8129L29.3316 37.8089L29.3238 37.8036L29.3159 37.7982L29.3087 37.7928L29.3015 37.7868L29.2916 37.7768L29.2791 37.7607L29.2699 37.7459L29.2621 37.7299L29.2555 37.7131L29.2496 37.6957L29.2457 37.6783L29.2424 37.6609V37.6381V37.614V37.5939L29.2463 37.5738L29.2522 37.5543L29.2594 37.5356L29.2686 37.5175L29.2798 37.5014L29.2923 37.486L29.3067 37.4726L29.3225 37.4605L29.3435 37.4512L29.3605 37.4438L29.3783 37.4384L29.3966 37.4344H29.4157H29.4748V36.4295H29.4157H29.4058H29.396H29.3868H29.3769H29.3678H29.3592L29.3507 36.4261L29.3422 36.4221L29.3343 36.4174L29.3257 36.412L29.3185 36.4067L29.3106 36.4L29.3034 36.3933L29.2962 36.3859L29.2844 36.3718L29.2739 36.3558L29.2647 36.3383L29.2575 36.3196L29.2516 36.3008L29.2476 36.2807V36.2606V36.2365V36.2211V36.2131V36.2043V36.1956V36.1876V36.1789V36.1708V36.1628V36.1548L29.2509 36.1461L29.2548 36.138L29.2594 36.1293L29.2778 36.1112L29.2824 36.1038L29.2877 36.0965L29.2962 36.0844L29.3133 36.0697L29.3284 36.059L29.3454 36.0496L29.3625 36.0429L29.3802 36.0375L29.3979 36.0335H29.4163H29.8824H29.8923H29.9014H29.9106H29.9198H29.9284H29.9362L29.9448 36.0375L29.9533 36.0422L29.9618 36.0469L29.9704 36.0523L29.9783 36.059L29.9855 36.0657L29.9927 36.073L30.0045 36.0871L30.0157 36.1032L30.0249 36.1206L30.0327 36.1394L30.0386 36.1588L30.0426 36.1789V36.199V36.2224V36.2459V36.2653L30.038 36.2847L30.0321 36.3028L30.0249 36.3209L30.0157 36.3377L30.0045 36.3537L29.9934 36.3665L29.9861 36.3745L29.9789 36.3805L29.971 36.3866L29.9638 36.3919L29.9559 36.3973L29.9474 36.4013L29.9389 36.4053L29.931 36.4087H29.9231H29.9139H29.9047H29.8955H29.8864H29.8765H29.8181V36.9741L30.3977 36.408H30.3872H30.3774H30.3682H30.3583H30.3492H30.3406L30.3327 36.4047L30.3242 36.4006L30.3157 36.396L30.3078 36.3906L30.2999 36.3852L30.292 36.3785L30.2848 36.3718L30.2776 36.3645L30.2658 36.3504L30.2553 36.3343L30.2467 36.3169L30.2389 36.2981L30.233 36.2794L30.229 36.2593V36.2392V36.2151V36.1997V36.1916V36.1829V36.1742V36.1662V36.1574V36.1494V36.1414V36.1333L30.233 36.1246L30.2362 36.1166L30.2408 36.1079L30.2454 36.0998L30.25 36.0925L30.2553 36.0851L30.2645 36.073L30.2809 36.0583L30.2966 36.0476L30.313 36.0382L30.3301 36.0315L30.3478 36.0261L30.3656 36.0221H30.3846H30.8507H30.8599H30.8691H30.8783H30.8874H30.896H30.9039L30.9124 36.0261L30.9209 36.0308L30.9295 36.0355L30.938 36.0409L30.9459 36.0469L30.9531 36.0543L30.961 36.0616L30.9721 36.0757L30.9833 36.0918L30.9925 36.1092L31.0004 36.128L31.0063 36.1474L31.0102 36.1675V36.1876V36.211V36.2345L31.0069 36.2539L31.0023 36.2733L30.9958 36.2914L30.9885 36.3095L30.9793 36.3263L30.9682 36.3424L30.957 36.3551L30.9498 36.3631L30.9426 36.3692L30.9354 36.3752L30.9275 36.3805L30.9196 36.3859L30.9111 36.3899L30.9032 36.3939L30.8947 36.3973H30.8868H30.8776H30.8684H30.8592H30.85H30.8402H30.7818V37.4022H30.8389H30.8566L30.8743 37.4056L30.8914 37.411L30.9078 37.4177L30.9235 37.4264L30.9393 37.4371L30.9531 37.4491L30.9662 37.4639L30.9774 37.4793L30.9872 37.496L30.9951 37.5141L31.0017 37.5329L31.0063 37.5523V37.5717V37.5959V37.6521V37.6722L31.0023 37.6917L30.9964 37.7111L30.9885 37.7292L30.9793 37.7466L30.9688 37.7634L30.957 37.7781L30.9491 37.7855L30.9426 37.7922L30.9354 37.7975L30.9406 37.8049ZM30.5966 35.4841V35.5056V35.5277V35.5505V35.5726L30.5914 35.5953L30.5835 35.6168L30.573 35.6369L30.5605 35.655L30.5454 35.671L30.5336 35.6804L30.5244 35.6891L30.5139 35.6985L30.5034 35.7072L30.4929 35.7159L30.4824 35.7246L30.4719 35.7327L30.4621 35.7414L30.4522 35.7488L30.4417 35.7568L30.4319 35.7642L30.422 35.7722L30.4122 35.7789L30.403 35.7863L30.3931 35.793L30.3833 35.7997L30.3741 35.8064L30.3636 35.8137L30.3531 35.8204L30.3432 35.8271L30.3327 35.8338L30.3229 35.8399L30.313 35.8459L30.3032 35.8513L30.294 35.8566L30.2848 35.862L30.2756 35.8667L30.2664 35.8707L30.2572 35.8754H30.2481L30.2389 35.8794H30.2303H30.2244L30.2146 35.8834L30.2028 35.8874L30.1916 35.8915H30.1811H30.1706H30.1594H30.1489H30.1273H30.1161H30.1056H30.0938H30.082H30.0695L30.0557 35.8874L30.0426 35.8834H30.0327L30.0203 35.8794L30.0085 35.8754L29.996 35.87L29.9828 35.8647L29.9704 35.8586L29.9572 35.8519L29.9435 35.8446L29.9303 35.8365L29.9165 35.8285L29.9021 35.8198L29.8877 35.8104L29.8732 35.8003L29.8588 35.7896L29.8437 35.7789L29.8286 35.7682L29.824 35.7642L29.8181 35.7602L29.8115 35.7555L29.8056 35.7508L29.799 35.7454L29.7925 35.7401L29.7859 35.7347L29.7794 35.7293L29.7721 35.7233L29.7649 35.7166L29.757 35.7106L29.7498 35.7039L29.7419 35.6972L29.7341 35.6898L29.7255 35.6824L29.713 35.671L29.6993 35.6536L29.6881 35.6362L29.6783 35.6168L29.6704 35.5967L29.6645 35.5759L29.6605 35.5545V35.533V35.5109V35.4895V35.4687L29.6638 35.4479L29.6697 35.4272L29.6776 35.4077L29.6868 35.3883L29.6993 35.3716L29.7104 35.3588L29.7209 35.3474L29.7354 35.3361L29.7505 35.326L29.7662 35.3186L29.7826 35.3133L29.799 35.3093H29.8155H29.8588H29.868H29.8765H29.885H29.8942H29.9034L29.912 35.3133L29.9205 35.318L29.929 35.3233L29.9369 35.3294L29.9448 35.3354L29.952 35.3428L29.9599 35.3501L29.9684 35.3595L29.9763 35.3709L29.9815 35.3783L29.9861 35.3843L29.9907 35.3903L29.9947 35.395L29.9986 35.3997V35.4037L30.0019 35.4071L30.0065 35.4118L30.0117 35.4171L30.0176 35.4218L30.0229 35.4265L30.0281 35.4305L30.0334 35.4345L30.0386 35.4386L30.0439 35.4419H30.0492H30.0544H30.0597H30.0649H30.0702H30.0754H30.0813H30.0866H30.0964H30.1056H30.1135H30.1207H30.126H30.1365H30.1411H30.147H30.1535H30.1614H30.1673H30.1732H30.1791H30.185H30.1909H30.1962H30.2021L30.208 35.4379H30.2133L30.2192 35.4339L30.2251 35.4292L30.2303 35.4245L30.2362 35.4198L30.2415 35.4151L30.2474 35.4098L30.2533 35.4037L30.2572 35.3997H30.2605L30.2645 35.395L30.2684 35.3897L30.273 35.3836L30.2783 35.3769L30.2835 35.3696L30.296 35.3521L30.3144 35.3374L30.3288 35.328L30.3432 35.32L30.3583 35.314L30.3741 35.3086H30.3899H30.4056H30.4391H30.4555L30.4719 35.3126L30.4883 35.318L30.5041 35.3253L30.5192 35.3354L30.5336 35.3468L30.5481 35.3622L30.5612 35.3816L30.571 35.3997L30.5789 35.4185L30.5855 35.4386L30.5907 35.4587L30.5966 35.4841Z" fill="#2B2A29"/>
<path fill-rule="evenodd" clip-rule="evenodd" d="M15.5881 17.6431V14.7542L20.6402 14.7615L20.6028 16.1015L15.5881 17.6431Z" fill="#7E7E7E"/>
<path fill-rule="evenodd" clip-rule="evenodd" d="M2.06836 33.2673V22.8513L14.9276 18.4067V24.9764L9.4436 26.7123V26.9066H14.9276V33.2673H2.06836ZM2.06836 14.5597V7.61548H14.9276V14.5597H2.06836Z" fill="#FEFEFE"/>
<path fill-rule="evenodd" clip-rule="evenodd" d="M15.6105 34.809V33.4617H28.9168L28.9627 26.7661L15.5711 26.7125L15.5757 24.9766C16.9661 24.5277 18.9236 23.8376 20.9094 23.2306C23.4091 22.4675 26.0855 21.6756 27.9899 19.86C31.0667 16.3695 30.2271 8.30705 23.0547 7.42135H15.5967V6.07471H30.4273V34.8258C26.3947 34.8258 20.0875 34.809 15.6105 34.809Z" fill="#7E7E7E"/>
</svg>
