<svg width="72" height="34" viewBox="0 0 72 34" fill="none" xmlns="http://www.w3.org/2000/svg">
<g clip-path="url(#clip0_779_126)">
<path fill-rule="evenodd" clip-rule="evenodd" d="M50.9014 10.4104C51.7352 10.5828 52.6465 10.3106 53.4454 9.73052C54.2722 9.13034 54.9679 8.20609 55.3378 7.10009C55.4053 6.89822 55.4596 6.69868 55.4999 6.50222C55.6876 5.60118 55.6085 4.75582 55.3115 4.08525C55.0338 3.45878 54.5591 2.98621 53.9317 2.77738C53.844 2.74799 53.7572 2.72479 53.6718 2.707C52.8381 2.53453 51.9267 2.80677 51.1279 3.38685C50.3011 3.98703 49.6054 4.91128 49.2354 6.01728C49.1679 6.21915 49.1136 6.41869 49.0733 6.61437C48.8856 7.51619 48.9639 8.36155 49.261 9.03211C49.5387 9.65859 50.0141 10.1319 50.6408 10.34C50.7284 10.3694 50.8153 10.3926 50.9006 10.4104H50.9014ZM41.529 7.86037C41.6888 8.18057 41.8757 8.35072 42.0921 8.3484C42.3876 8.34608 42.7878 8.11947 43.3051 7.64071L43.9357 8.31669C43.24 8.96019 42.6311 9.26492 42.0991 9.26956C41.4879 9.27497 41.0272 8.9277 40.6991 8.27183L41.529 7.85959V7.86037ZM31.101 13.7199C31.4051 14.0385 31.7487 14.1607 32.1543 13.9689C32.8632 13.6333 33.7784 12.5767 34.9992 10.4498L35.8089 10.8976L35.795 10.9232C35.3661 11.7159 34.9946 12.5303 34.8084 13.1553C34.7347 13.4012 34.6921 13.6085 34.6874 13.7601C34.986 13.6974 35.3645 13.3966 35.7384 13.0075C36.3495 12.3718 36.8932 11.5326 37.1267 11.002L37.1934 10.8365L38.0574 11.1652C38.0388 11.2155 38.0179 11.2689 37.993 11.3261C37.7596 11.9116 37.5556 12.4808 37.499 12.9024C37.468 13.1336 37.4811 13.2906 37.5773 13.3022C37.6564 13.3123 37.8139 13.1785 38.0101 12.9681C38.266 12.6935 38.5398 12.3037 38.8066 11.8884C39.0091 11.2696 39.4163 10.5125 40.1089 9.67174L40.8224 10.2572C40.1097 11.1227 39.7482 11.8629 39.6195 12.4151C39.5621 12.6634 39.5535 12.8575 39.5815 12.9936C39.5869 13.0222 39.5892 13.0416 39.59 13.054C39.9227 13.0014 40.3687 12.6471 40.8069 12.1691C41.3747 11.5512 41.892 10.7484 42.1549 10.084L42.1642 10.0608L43.0321 10.3802C42.7009 11.3091 42.5357 12.0879 42.5831 12.5388C42.5885 12.5883 42.5939 12.6278 42.5993 12.6549C42.8212 12.5876 43.1616 12.3339 43.6402 11.8443L44.3033 12.4878C43.6945 13.1104 43.2066 13.4438 42.8328 13.5474C42.4853 13.6433 42.203 13.576 41.9835 13.3718C41.8005 13.2017 41.6958 12.9488 41.6624 12.6324L41.6593 12.5969C41.6027 12.6626 41.5453 12.7268 41.4879 12.7902C40.8806 13.4515 40.1996 13.938 39.6047 13.9805C39.4496 13.9913 39.3022 13.9612 39.1681 13.8923C39.0052 13.8088 38.8733 13.6727 38.7818 13.4909L38.6864 13.5969C38.2947 14.0169 37.886 14.2706 37.4679 14.2203C36.9312 14.1553 36.6652 13.8753 36.5845 13.4538C36.5248 13.5203 36.4651 13.5853 36.4046 13.6487C35.8027 14.2752 35.1225 14.7323 34.4966 14.6952C34.4128 14.6898 34.3345 14.6735 34.2632 14.6464C33.932 14.5211 33.7769 14.2388 33.7637 13.8428C33.3224 14.3185 32.919 14.6302 32.5491 14.8058C31.6703 15.2219 30.9847 14.9806 30.4146 14.3487C29.9741 14.7516 29.5273 15.1615 29.0643 15.5908L28.3376 15.0432L28.7393 14.259C28.5035 14.5095 28.2809 14.7307 28.0715 14.9249C26.988 15.9327 26.1814 16.2575 25.6935 16.1763C25.0599 16.0719 24.7147 15.696 24.5898 15.1824C24.5542 15.037 24.5394 14.8823 24.5425 14.7215C24.4386 14.7385 24.3323 14.7509 24.2261 14.7578H24.2245C23.9127 14.7787 23.5909 14.757 23.3047 14.7091C23.0549 15.3263 22.7253 15.8182 22.3864 16.191C21.755 16.8863 21.0329 17.1941 20.6715 17.1678H20.6699C20.5676 17.1601 20.4714 17.1353 20.3822 17.0936C20.1038 16.9652 19.923 16.7007 19.8338 16.3387C19.771 16.0835 19.7509 15.7687 19.7718 15.4168C19.6547 15.4562 19.5391 15.4895 19.4243 15.5173C19.4127 15.5475 19.4003 15.5777 19.3871 15.6078C18.9605 16.611 17.9879 17.618 16.6058 17.635C16.0404 17.6419 15.6851 17.3589 15.5192 16.9118C15.4734 16.7888 15.4447 16.6558 15.4323 16.5151L14.037 17.9358C13.6019 18.379 13.2722 18.4223 13.0209 18.1772C12.6805 17.8446 13.1241 16.8414 13.5615 15.8538L13.8307 15.2412C13.5677 15.4624 13.2567 15.7579 12.9193 16.1167C12.288 16.7896 11.6086 17.6775 11.0393 18.7286L11.016 18.7162L10.3979 20.212C9.37018 22.7002 8.34484 25.1844 7.51882 27.1598L6.6641 26.8055C7.61809 24.5231 8.58139 22.1897 9.54314 19.8617L9.95499 18.8647C9.91543 18.8872 9.87743 18.9073 9.84097 18.9235C9.47101 19.0944 9.17008 19.0527 8.93352 18.85C8.74117 18.6861 8.63801 18.4285 8.60854 18.1091L8.60311 18.031C8.4666 18.1988 8.327 18.3612 8.18506 18.5113C7.63671 19.0929 7.04105 19.5113 6.48261 19.4935C5.7962 19.4719 5.5007 19.0627 5.48053 18.4533C5.25173 18.6389 5.01672 18.8114 4.78171 18.9684C3.73465 19.6683 2.65346 20.0736 2.18034 20.0535C1.09683 20.0063 0.448421 19.4804 0.159121 18.6296C-0.0743354 17.9436 -0.0464137 17.051 0.192472 16.0471C0.418948 15.0927 0.840876 14.0176 1.41017 12.914C3.5423 8.77611 7.78873 4.23066 11.607 4.17807C11.9832 4.17265 12.3151 4.24767 12.5835 4.40004C12.9271 4.59727 13.1598 4.90664 13.2435 5.32274C13.3157 5.68316 13.2691 6.12092 13.0745 6.62829C12.7433 7.49067 11.9576 8.61369 10.5499 9.96797L9.90845 9.30281C11.2076 8.05295 11.9211 7.04827 12.2089 6.29881C12.3376 5.96237 12.3741 5.69786 12.3345 5.50218C12.3066 5.36296 12.2329 5.26242 12.1259 5.20131H12.1243C11.9995 5.13016 11.8273 5.09535 11.6194 5.09767C8.17188 5.14485 4.24422 9.42966 2.23386 13.3308C1.70257 14.3626 1.30856 15.3673 1.09605 16.2583C0.895944 17.0998 0.862593 17.8191 1.0371 18.3318C1.1992 18.8075 1.5777 19.1029 2.22145 19.1308C2.53945 19.1439 3.37865 18.7967 4.26827 18.2011C4.94382 17.7494 5.62169 17.1601 6.08706 16.4833C6.15686 16.3565 6.23054 16.2304 6.3081 16.1082C6.78122 15.3611 7.40325 14.7037 7.97332 14.4825C8.60466 14.2373 9.15922 14.3989 9.47954 15.2203L8.61707 15.5529C8.53718 15.3472 8.42472 15.2961 8.30683 15.3425C7.93066 15.4887 7.47073 16.0007 7.09068 16.6001C6.70288 17.2119 6.41979 17.8871 6.40505 18.3427C6.40117 18.4772 6.43142 18.5693 6.51208 18.5716C6.76105 18.5793 7.12869 18.2854 7.51184 17.8786C8.17808 17.1717 8.81407 16.1624 9.11423 15.6055L9.95499 15.9868C9.67112 16.7401 9.48575 17.5545 9.52918 18.0256L9.53073 18.0434C9.82081 17.8716 10.2621 17.4215 10.8997 16.5785C11.4496 15.2489 11.9723 13.9906 12.4315 12.8915L13.2862 13.2458L12.4338 15.293C13.3343 14.3804 14.1812 13.8575 14.5621 13.8475C14.9095 13.839 15.0732 14.0223 15.0809 14.3657C15.0887 14.6905 14.7513 15.4531 14.41 16.2258L14.3992 16.2498L16.1404 14.4763L16.1497 14.4856C16.6818 13.8096 17.4907 13.2682 18.5099 13.2342C19.0528 13.2164 19.3941 13.4979 19.5515 13.9488C19.6074 14.1089 19.6353 14.2899 19.6368 14.4817C19.7322 14.4446 19.8292 14.4036 19.9277 14.3572C20.0657 13.7369 20.2891 13.0632 20.5877 12.4213C20.7847 11.9974 21.0252 11.5728 21.2873 11.1567C21.5471 10.7437 21.8194 10.3516 22.0885 9.97802C22.975 8.75059 23.9538 8.04522 24.6371 7.87352C24.9722 7.78999 25.2693 7.81706 25.5043 7.9555C25.7695 8.11251 25.9254 8.37934 25.9394 8.75368C25.9603 9.31674 25.5942 10.2356 24.6364 11.4839C23.6335 12.791 22.156 14.1924 20.7514 14.9721C20.7273 15.1237 20.7103 15.2691 20.7002 15.4067C20.6792 15.696 20.6893 15.9396 20.732 16.1152L20.7661 16.2428C20.936 16.2289 21.3005 16.0123 21.7023 15.5699C22.0342 15.2041 22.3569 14.6936 22.5702 14.0246L22.7106 13.5845L23.1495 13.7245C23.4117 13.808 23.7917 13.8575 24.1648 13.8328C24.3851 13.8181 24.596 13.7779 24.762 13.7029C24.8233 13.5459 24.8954 13.3896 24.9776 13.2373C25.5027 12.2612 26.4536 11.405 27.3913 11.4646C27.5333 11.4731 27.6744 11.5249 27.7954 11.6169C27.9048 11.7004 27.9978 11.8172 28.0568 11.9657C28.108 12.0934 28.1343 12.2434 28.1235 12.412C28.1049 12.7028 27.9715 13.0733 27.6426 13.5025L26.9073 12.9426C27.0927 12.7005 27.1757 12.5195 27.1951 12.3911C26.6871 12.4561 26.1387 13.0307 25.792 13.6742C25.6602 13.9194 25.5609 14.1716 25.5082 14.4075C25.4608 14.6186 25.4508 14.8104 25.4872 14.962C25.5244 15.1151 25.6346 15.2281 25.8409 15.2621C26.0798 15.3015 26.5955 15.0301 27.4394 14.2458C28.1832 13.5544 29.1178 12.4901 30.2471 10.9324L31.0584 11.3555C30.8513 11.9449 30.5721 12.5891 30.2742 13.2233L30.652 12.8784C31.3756 12.2186 32.1016 11.5574 32.8655 10.8481L33.4961 11.5233C32.9113 12.0663 32.0938 12.8111 31.2748 13.5575L31.0979 13.7191L31.101 13.7199ZM42.6094 12.6912L42.6141 12.6989C42.6257 12.7098 42.6195 12.7028 42.6094 12.6912ZM17.832 14.3085C17.8863 14.3719 17.9429 14.426 18.0026 14.4716C18.1958 14.6194 18.4323 14.6859 18.6976 14.6859L18.7022 14.6503C18.7209 14.4887 18.7139 14.351 18.6797 14.252C18.6588 14.1909 18.6123 14.153 18.5401 14.1553C18.2857 14.1638 18.0484 14.2187 17.832 14.3092V14.3085ZM18.3648 15.5862C18.029 15.539 17.718 15.416 17.4411 15.2049C17.3062 15.102 17.1813 14.979 17.068 14.8344C16.8369 15.0703 16.6562 15.3456 16.5329 15.6202C16.4429 15.8213 16.3847 16.0216 16.363 16.2041C16.3444 16.3611 16.3514 16.4942 16.3863 16.5893C16.415 16.6651 16.4832 16.7138 16.5957 16.7123C17.3969 16.7022 18.0081 16.1833 18.3648 15.5862ZM21.0818 13.6727C22.1219 12.9348 23.1503 11.9031 23.9019 10.9239C24.7163 9.86278 25.0304 9.15973 25.0164 8.78616C25.0156 8.75445 25.0467 8.75755 25.0343 8.74981C25.0156 8.73898 24.9567 8.74594 24.8629 8.76915C24.3572 8.89599 23.5893 9.47761 22.8393 10.5156C22.5725 10.8845 22.3088 11.2642 22.0699 11.6432C21.8341 12.0183 21.6146 12.4074 21.4285 12.8065C21.2959 13.0919 21.1795 13.3834 21.081 13.6711L21.0818 13.6727ZM54.6235 15.5212C54.1419 16.6752 53.6253 17.9219 53.0925 19.2159C54.0201 18.2785 54.902 17.751 55.2905 17.7402C55.638 17.7317 55.8009 17.9134 55.8086 18.2537V18.2553C55.8156 18.567 55.4852 19.277 55.1439 20.0133C55.1005 20.1076 55.0524 20.1981 55.0036 20.2855L55.7179 19.6266L56.3446 20.3025L54.7499 21.7736C54.2877 22.2005 53.9518 22.2253 53.7091 21.9639L53.7099 21.9631C53.3825 21.6073 53.8518 20.5964 54.3024 19.6273L54.5273 19.1424C54.2667 19.3574 53.9604 19.642 53.6307 19.9885C53.0033 20.6459 52.3316 21.5145 51.7685 22.5524L51.7305 22.5316L51.435 23.2524C50.2468 26.1489 49.0586 29.0454 48.2488 30.9836L47.3941 30.6294C48.3652 28.3044 49.4727 25.6052 50.5803 22.9051L50.8254 22.3088C50.5268 22.3645 50.2801 22.291 50.0839 22.1085C49.9009 21.9383 49.7962 21.6854 49.7628 21.3691L49.7597 21.3335C49.7031 21.3993 49.6457 21.4642 49.5883 21.5269C48.981 22.1882 48.3 22.6747 47.7059 22.7172C47.55 22.728 47.4026 22.6979 47.2692 22.629C47.1056 22.5447 46.973 22.4078 46.8814 22.2245C46.8372 22.2756 46.793 22.3243 46.7496 22.3715C46.3401 22.8092 45.9096 23.083 45.4923 23.0327C44.8548 22.9554 44.6113 22.5702 44.6066 22.0064C44.4499 22.1162 44.2863 22.2052 44.1164 22.2663C43.6922 22.4194 43.2516 22.4039 42.8235 22.1201C42.7374 22.0629 42.6521 21.9948 42.5691 21.9144L41.7012 24.056L40.8426 23.7126L41.6073 21.8262C41.2661 22.2075 40.9504 22.5323 40.6603 22.8061C39.59 23.8162 38.7927 24.1589 38.3056 24.0784C37.6719 23.9732 37.3276 23.5981 37.2019 23.0846C37.1538 22.8866 37.143 22.6708 37.1647 22.4457C37.0507 22.4519 36.9328 22.4558 36.8118 22.4565C36.5295 22.4674 36.2433 22.4465 35.9858 22.4032C35.736 23.0204 35.4064 23.5115 35.0682 23.8851C34.4369 24.5804 33.7148 24.8874 33.3534 24.8611H33.3518C33.2494 24.8534 33.1533 24.8287 33.0641 24.7869C32.7856 24.6585 32.6049 24.394 32.5157 24.032C32.4971 23.957 32.4824 23.8773 32.4715 23.793C31.2686 24.7931 30.2137 25.7034 29.3071 26.5317L28.706 27.9881C27.9179 29.8985 27.1299 31.8096 26.4133 33.5305L26.2178 34L25.7688 33.7602C23.9158 32.771 23.8654 31.3216 25.5454 29.1235C26.2295 28.2287 27.2261 27.193 28.5299 25.9919L28.8851 25.1311C28.443 25.4729 27.9823 25.6856 27.548 25.6593C27.4642 25.6547 27.3859 25.6377 27.3138 25.6106C26.9795 25.4837 26.8251 25.1984 26.8135 24.7962C26.8088 24.6214 26.8337 24.418 26.8841 24.1937C26.4272 24.6894 25.9169 25.1891 25.3786 25.6253C24.4052 26.4134 23.331 26.9981 22.2832 27.0105C21.4867 27.0198 21.0073 26.6555 20.7909 26.0375C20.6327 25.5858 20.6428 25.0011 20.7917 24.3429C20.9298 23.7312 21.188 23.042 21.5378 22.3343C22.9285 19.5206 25.83 16.3171 28.4477 16.2815C28.7005 16.2784 28.9301 16.3263 29.1217 16.4246C29.3869 16.5599 29.5739 16.7772 29.6569 17.0742V17.0758C29.7274 17.3264 29.7166 17.6272 29.6049 17.9722C29.4529 18.4432 29.0976 19.0302 28.4787 19.7186L27.79 19.1045C28.3158 18.5198 28.6082 18.048 28.7238 17.6907C28.7765 17.5275 28.7874 17.406 28.7649 17.3233C28.7541 17.2869 28.7316 17.2606 28.6998 17.2444C28.6431 17.2158 28.5602 17.2011 28.4562 17.2026C26.2163 17.2336 23.6389 20.1656 22.3654 22.7427C22.0466 23.3878 21.8132 24.0057 21.6914 24.5456C21.5805 25.039 21.5627 25.452 21.6619 25.7343C21.741 25.9602 21.9365 26.0932 22.2739 26.0893C23.0782 26.0801 23.9632 25.582 24.793 24.9099C26.2256 23.7497 27.4627 22.0868 27.9296 21.4039L28.0211 21.4666L28.042 21.4287L28.8572 21.8656C28.4221 22.6661 28.0452 23.4914 27.8567 24.1233C27.783 24.3692 27.7403 24.5765 27.7357 24.7273C28.0343 24.6647 28.4128 24.363 28.7866 23.974C29.4598 23.2733 30.0516 22.3274 30.2362 21.8185L30.2548 21.8254L30.4239 21.4194L31.2786 21.7736C30.8676 22.7574 30.4821 23.6855 30.1106 24.5812C30.8412 23.9477 31.6416 23.2756 32.5103 22.5602C32.6251 21.813 32.8841 20.9391 33.2665 20.1169C33.4635 19.6931 33.7039 19.2685 33.9661 18.8524C34.2259 18.4393 34.4982 18.0464 34.7673 17.6737C35.6538 16.4462 36.6326 15.7408 37.3159 15.5691C37.651 15.4856 37.948 15.5127 38.1831 15.6511C38.4483 15.8081 38.6042 16.075 38.6182 16.4493C38.6391 17.0124 38.273 17.9312 37.3152 19.1795C36.759 19.9042 36.1176 20.6135 35.432 21.2941L35.8299 21.4209C36.092 21.5044 36.4713 21.5539 36.8436 21.5292C37.0747 21.5137 37.2958 21.4696 37.4656 21.3877C37.5036 21.3049 37.544 21.2229 37.5874 21.1425V21.1409C38.1125 20.1649 39.0634 19.3087 40.0011 19.3682C40.2663 19.3853 40.4641 19.5786 40.5238 19.8903C40.5502 20.0295 40.551 20.2128 40.5091 20.4139C40.4703 20.5964 40.3958 20.8014 40.271 21.0087C39.9584 21.5277 39.3185 22.0822 38.1156 22.3274C38.0714 22.5316 38.0628 22.718 38.0985 22.8665C38.1357 23.0196 38.2459 23.1325 38.4522 23.1666C38.6849 23.2052 39.1937 22.9206 40.0243 22.1363C40.7697 21.4325 41.7121 20.3474 42.8592 18.7673L43.6635 19.2097L42.9646 20.9344C43.0895 21.1355 43.2136 21.2693 43.3331 21.349C43.4851 21.4495 43.6449 21.4534 43.8 21.3977C44.0148 21.3204 44.2359 21.144 44.4406 20.9259C44.7842 20.5601 45.0642 20.0999 45.217 19.7596L45.2922 19.5724L46.1563 19.8996C46.1369 19.9514 46.1159 20.0024 46.095 20.0543C45.8561 20.649 45.6319 21.2446 45.5583 21.6916C45.5179 21.936 45.5179 22.1054 45.5994 22.1147C45.6793 22.124 45.8538 21.9731 46.0702 21.7427C46.3455 21.448 46.6364 21.0412 46.9055 20.6243C47.1079 20.0063 47.5151 19.2484 48.2077 18.4076L48.9213 18.9931C48.2085 19.8586 47.8471 20.5988 47.7183 21.1502C47.6601 21.3985 47.6524 21.5926 47.6803 21.7295C47.6857 21.7581 47.6881 21.7775 47.6888 21.7906C48.0208 21.738 48.4668 21.3838 48.9058 20.9058C49.4735 20.2871 49.9908 19.485 50.2538 18.8206L50.2631 18.7967L51.131 19.1169C50.7998 20.0458 50.6346 20.8238 50.6819 21.2755C50.6873 21.325 50.6928 21.3645 50.6982 21.3915C50.8634 21.3413 51.0937 21.1881 51.3978 20.912C52.2975 18.7216 53.1444 16.662 53.7688 15.1677L54.6235 15.522V15.5212ZM50.7083 21.4279L50.7129 21.4356C50.7246 21.4464 50.7183 21.4395 50.7083 21.4279ZM38.6228 21.2214C39.0696 21.0303 39.3333 20.7782 39.4783 20.5377C39.5148 20.4773 39.5427 20.4193 39.5636 20.3636C39.2286 20.5036 38.8927 20.83 38.6228 21.2221V21.2214ZM34.3066 21.1007C34.4353 20.9785 34.5633 20.8555 34.6897 20.7318C35.38 20.0527 36.0261 19.3435 36.5807 18.6203C37.395 17.5592 37.7092 16.8561 37.6952 16.4826C37.6944 16.4509 37.7254 16.454 37.713 16.4462C37.6944 16.4354 37.6355 16.4424 37.5416 16.4656C37.0359 16.5924 36.2681 17.174 35.5181 18.212C35.2513 18.5809 34.9876 18.9606 34.7487 19.3396C34.5129 19.7147 34.2934 20.1038 34.1073 20.5029C33.9382 20.8664 33.7962 21.2392 33.683 21.6019C33.887 21.4364 34.0949 21.2686 34.305 21.0992L34.3066 21.1007ZM35.3381 21.3892C34.7091 22.008 34.0452 22.6004 33.3774 23.1573C33.3611 23.4226 33.3728 23.6469 33.4131 23.8116L33.4472 23.9392C33.6171 23.9253 33.9816 23.7087 34.3834 23.2663C34.7153 22.9005 35.038 22.39 35.2513 21.721L35.3661 21.3621L35.3397 21.3884L35.3381 21.3892ZM25.7734 32.6573C26.459 31.0099 27.0578 29.5582 27.648 28.1273C27.0981 28.6927 26.6413 29.2101 26.2791 29.6842C25.222 31.0664 25.0467 32.0154 25.7734 32.6573ZM49.5123 11.8087C51.0557 12.3308 52.4371 12.2442 53.6393 11.6014C54.9128 10.9208 56.0111 9.61451 56.9139 7.74667L57.7903 7.89672C57.9997 9.78234 57.6383 11.3485 56.9294 12.4986C56.7556 12.7802 56.561 13.0377 56.3485 13.2682C56.4152 13.2659 56.4819 13.2628 56.5493 13.2589C59.872 13.0849 63.4987 11.8613 66.588 9.20614C66.8478 8.20377 66.757 7.10009 66.1242 5.83862C66.0551 5.70636 65.9838 5.57565 65.9109 5.44649L66.7152 4.99171L66.7175 4.99558L66.719 4.99481C67.2193 5.87961 67.642 6.83789 67.9305 7.92302C68.627 7.18362 69.2855 6.35914 69.8944 5.44417L70.7235 5.56715C70.7987 5.81851 70.905 5.96314 71.0329 6.03198C71.1733 6.10777 71.3665 6.11783 71.5891 6.08921L72.0017 6.84253C70.967 8.07615 70.3225 9.39176 69.9471 10.7631C69.5678 12.1483 69.4592 13.5992 69.4988 15.085L68.7581 15.4624C68.6053 15.3464 68.4386 15.2899 68.2617 15.2807C68.0601 15.2698 67.8375 15.3162 67.6009 15.4052L66.9874 14.8777C67.4078 12.9279 67.4954 11.2936 67.3488 9.87979C67.3201 9.96178 67.2891 10.0438 67.2565 10.125C66.6702 11.5806 65.5052 12.842 64.2247 14.0641L63.5833 13.3997C64.3744 12.644 65.1166 11.8776 65.6813 11.0724C62.7867 13.071 59.5765 14.0246 56.5974 14.1808C56.1127 14.2064 55.6341 14.2102 55.1633 14.1948C55.0811 14.2388 54.9981 14.2798 54.9136 14.3185C54.107 14.6867 53.2026 14.798 52.2835 14.6171C51.1643 14.3966 50.025 13.7431 49.0221 12.593C48.1814 12.1104 47.4655 11.5318 46.9125 10.8729C46.4556 10.3292 46.1097 9.73284 45.8941 9.09399C45.2713 8.57579 44.9246 7.83794 44.809 7.0181C44.7765 6.78917 44.7633 6.55482 44.7664 6.31737L41.712 5.60737L41.809 4.76355L44.8657 5.3908C44.8765 5.33434 44.8889 5.27711 44.9021 5.22065C45.0386 4.62511 45.2759 4.03885 45.5963 3.51524C46.368 2.253 47.6221 1.35195 49.1369 1.50896C49.5511 1.23439 49.9901 0.996948 50.4492 0.797403C51.5638 0.312462 52.7962 0.0494957 54.0697 0.00695699C55.3355 -0.0355817 56.644 0.139987 57.9183 0.531343C61.1269 1.51669 64.1347 3.87179 65.7503 7.56646L64.9026 7.93462C63.4033 4.50755 60.6174 2.32493 57.646 1.41228C56.4687 1.05031 55.2626 0.887894 54.0984 0.927339C52.942 0.966011 51.8251 1.20423 50.8184 1.64199C50.6385 1.7201 50.4624 1.80518 50.2902 1.89567C50.5182 2.04804 50.7059 2.23908 50.8564 2.46105C51.7631 1.89258 52.7884 1.64818 53.7634 1.85004C53.8944 1.87711 54.017 1.91037 54.1326 1.94827C55.0408 2.2499 55.7225 2.92124 56.1142 3.80682C56.4865 4.64754 56.5904 5.68316 56.3655 6.76364C56.3174 6.99335 56.2554 7.22461 56.1786 7.45432C55.7582 8.71269 54.9617 9.76765 54.0139 10.456C53.0382 11.1645 51.8934 11.4908 50.8106 11.2666C50.6796 11.2395 50.557 11.2062 50.4415 11.1683C49.6224 10.8961 48.9872 10.3222 48.5823 9.56269C48.1503 9.76842 47.6912 9.84112 47.2227 9.73439C47.3414 9.92233 47.474 10.1033 47.6214 10.2789C48.1108 10.8613 48.7522 11.3764 49.5123 11.808V11.8087ZM54.0736 12.4143C53.1041 12.9325 52.0454 13.1506 50.9045 13.0485C51.4172 13.3904 51.9423 13.6077 52.4596 13.7098C53.1871 13.8529 53.8975 13.7671 54.5273 13.4801C55.1618 13.1908 55.721 12.6935 56.139 12.0152C56.5276 11.3849 56.7929 10.6006 56.8859 9.68257C56.0716 10.9301 55.1308 11.8497 54.0736 12.4151V12.4143ZM48.3086 4.64135C48.1201 5.04663 47.7307 5.28794 47.4391 5.17966C47.1498 5.07293 47.0668 4.65682 47.2568 4.25232C47.4469 3.84781 47.8354 3.60727 48.1247 3.71478C48.4148 3.82461 48.4978 4.23917 48.3086 4.64212V4.64135ZM51.5878 5.5045C51.3838 5.98171 50.9185 6.26865 50.5469 6.14645C50.1747 6.02502 50.0374 5.5424 50.2406 5.06519C50.443 4.58721 50.9084 4.29949 51.2791 4.42092C51.653 4.54313 51.7887 5.02807 51.5878 5.50527V5.5045ZM50.1529 2.98698C49.9521 2.67916 49.6496 2.46569 49.2261 2.39531C48.0162 2.19499 46.9846 2.93594 46.3424 3.98626C46.0709 4.4302 45.8693 4.92984 45.7522 5.4403C45.7421 5.48284 45.7336 5.52538 45.725 5.56792L48.2682 6.08999C48.3047 5.94767 48.3466 5.80536 48.3939 5.66383C48.753 4.5903 49.3859 3.66374 50.1529 2.98776V2.98698ZM48.103 7.09312L45.6381 6.52001C45.6413 6.65614 45.6521 6.79071 45.6707 6.92142C45.801 7.84722 46.3292 8.62838 47.3763 8.88439C47.6695 8.95632 47.9681 8.90063 48.2581 8.74981C48.1154 8.23935 48.0604 7.67784 48.103 7.09235V7.09312ZM70.2356 6.57029C69.588 7.47056 68.8931 8.28034 68.1624 9.00659L68.1973 9.22702C68.4153 10.6888 68.3959 12.3687 68.0306 14.3634C68.1237 14.3556 68.2152 14.3541 68.3067 14.3595C68.3943 14.3641 68.4804 14.3742 68.565 14.3912C68.5727 13.0725 68.7092 11.7778 69.0536 10.5217C69.3956 9.27265 69.9409 8.06842 70.7654 6.92452C70.7064 6.90209 70.6482 6.87579 70.5916 6.84563C70.4605 6.77525 70.3411 6.68475 70.2348 6.57106L70.2356 6.57029Z" fill="#2B2A29"/>
</g>
<defs>
<clipPath id="clip0_779_126">
<rect width="72" height="34" fill="white"/>
</clipPath>
</defs>
</svg>
