<svg width="267" height="26" viewBox="0 0 267 26" fill="none" xmlns="http://www.w3.org/2000/svg">
<g clip-path="url(#clip0_63_326)">
<path fill-rule="evenodd" clip-rule="evenodd" d="M0 18.5678V16.7879H4.12341L5.6189 9.17152H1.47969V7.39169H5.97797L7.2801 0.524902H8.99654V1.24245L7.78911 7.39971H14.2721L15.5664 0.524902H17.2828V1.24245L16.0636 7.39971H19.9621V9.17954H15.7045L14.1774 16.7959H18.4468V18.5758H13.8223L12.607 25.4506H10.8905V24.737L12.0348 18.5758H5.59522L4.29703 25.4506H2.57664V24.737L3.78407 18.5758L0 18.5678ZM5.94245 16.7879H12.4097L13.9407 9.17152H7.44583L5.94245 16.7879Z" fill="white"/>
<path fill-rule="evenodd" clip-rule="evenodd" d="M22.2466 17.5217H27.0921C26.8317 18.8486 27.0487 19.8347 27.7432 20.4881C28.4376 21.1415 29.4991 21.4662 30.8998 21.4662C31.9579 21.5053 33.0038 21.2264 33.9066 20.6645C34.288 20.41 34.6139 20.0788 34.8644 19.6913C35.1148 19.3039 35.2844 18.8683 35.3626 18.4117C35.7546 16.4127 34.6944 15.4119 32.1822 15.4092H29.1163L29.9055 11.3284H32.9754C33.8853 11.3684 34.7827 11.102 35.5283 10.5708C36.2037 10.0526 36.6572 9.29051 36.795 8.44218C36.9044 8.04595 36.919 7.62883 36.8373 7.22573C36.7556 6.82263 36.5801 6.44526 36.3254 6.12519C35.8124 5.54394 35.0193 5.25532 33.9263 5.25532C33.2224 5.24336 32.5238 5.37986 31.8745 5.65618C31.237 5.9435 30.6846 6.39543 30.2725 6.96701C29.7927 7.62586 29.4699 8.38879 29.3294 9.19581H24.4997C25.0521 6.38976 26.2858 4.27187 28.2009 2.84212C30.1289 1.43614 32.4531 0.702033 34.826 0.749613C37.4421 0.749613 39.3716 1.39901 40.5948 2.70182C41.818 4.00462 42.2205 5.74437 41.7786 7.91304C41.3366 10.0817 40.0266 11.8375 37.7972 13.1764C39.8727 14.2454 40.6724 15.9824 40.1963 18.3876C39.8066 20.5983 38.5907 22.5704 36.8029 23.8915C34.9878 25.2464 32.7215 25.9252 30.0041 25.9278C27.2868 25.9305 25.1823 25.2277 23.6908 23.8193C22.1756 22.4136 21.6942 20.3011 22.2466 17.4817V17.5217ZM41.1117 25.4428H45.5547L48.6404 19.7906H56.761L57.5501 25.4428H62.3167L62.6363 23.8393L58.8049 1.26673H54.0699L41.4077 23.8393L41.088 25.4428H41.1117ZM50.8777 15.7058L55.08 7.83688L56.1178 15.7058H50.8777ZM65.9153 5.54795L66.7598 1.25871H84.9107L84.0663 5.54795H77.4372L73.5229 25.4428H68.6656L72.5799 5.54795H65.9153ZM84.9896 17.2291C84.4477 19.971 84.8752 22.109 86.272 23.6429C87.6688 25.1769 89.8364 25.9492 92.7748 25.9599C95.7184 25.9599 98.1872 25.1876 100.181 23.6429C102.198 22.0666 103.557 19.7769 103.989 17.2291L105.532 9.48844C106.058 6.76257 105.63 4.62463 104.249 3.07462C102.868 1.52462 100.703 0.753624 97.7544 0.761641C94.8161 0.761641 92.3447 1.53263 90.3402 3.07462C88.3182 4.6464 86.9576 6.93822 86.5324 9.48844L85.0093 17.2291H84.9896ZM89.7838 17.4857L91.4016 9.26796C91.621 8.1138 92.2624 7.08686 93.197 6.39377C94.2556 5.61496 95.5408 5.21971 96.8469 5.27135C98.3147 5.27135 99.3827 5.64549 100.051 6.39377C100.385 6.78108 100.619 7.24589 100.734 7.74716C100.849 8.24843 100.841 8.77074 100.71 9.26796L99.0921 17.4857C98.8703 18.6325 98.2323 19.6526 97.3046 20.3438C96.2483 21.1212 94.966 21.5164 93.6626 21.4662C92.2026 21.4662 91.1254 21.0934 90.4507 20.3438C90.1161 19.9603 89.8801 19.4986 89.7637 18.9999C89.6474 18.5012 89.6543 17.981 89.7838 17.4857ZM107.71 25.4428L112.634 0.52513H114.607L112.346 12.0059H125.88L128.141 0.52513H130.134L125.229 25.4428H123.256L125.537 13.8578H112.003L109.722 25.4428H107.71ZM132.94 17.0848L134.549 8.9152C135.099 6.11718 136.348 3.93381 138.294 2.36509C140.241 0.796383 142.644 0.0133625 145.503 0.0160349C148.313 0.0160349 150.389 0.809742 151.734 2.39716C153.078 3.98458 153.473 6.15726 152.917 8.9152L151.304 17.0848C150.871 19.6537 149.533 21.9748 147.539 23.6149C145.569 25.2183 143.179 26.02 140.37 26.02C137.505 26.02 135.41 25.2183 134.088 23.659C132.766 22.0996 132.371 19.9029 132.924 17.1048L132.94 17.0848ZM134.913 17.2131C134.497 19.3296 134.81 20.9986 135.852 22.2199C136.897 23.4225 138.535 24.0478 140.776 24.0478C142.806 24.1176 144.797 23.4718 146.411 22.2199C147.946 20.9669 148.977 19.1856 149.307 17.2131L150.96 8.823C151.373 6.70644 151.066 5.03217 150.037 3.80018C149.008 2.5682 147.371 1.95354 145.124 1.95621C143.089 1.8885 141.093 2.5402 139.478 3.80018C137.936 5.0567 136.9 6.84347 136.566 8.823L134.913 17.2131ZM155.727 25.4428L160.632 0.52513H170.863C172.836 0.52513 174.268 1.08233 175.148 2.20074C176.028 3.31915 176.261 4.90256 175.855 6.96701C175.297 9.78908 173.794 11.6277 171.345 12.4829C174.091 13.151 175.122 15.2261 174.438 18.7083C174.015 20.8462 173.129 22.5018 171.783 23.675C170.391 24.8713 168.613 25.5011 166.791 25.4428H155.727ZM158.094 23.5948H166.807C168.158 23.638 169.477 23.1742 170.512 22.292C171.562 21.3389 172.259 20.0484 172.485 18.6361C172.795 17.0567 172.63 15.8234 171.988 14.9362C171.346 14.0489 170.278 13.608 168.784 13.6133H160.04L158.067 23.5948H158.094ZM160.379 11.8335H168.393C169.672 11.8721 170.92 11.4264 171.893 10.5828C172.88 9.66873 173.534 8.44247 173.748 7.1033C174.044 5.59605 173.882 4.42553 173.266 3.60777C172.651 2.79001 171.613 2.37311 170.153 2.37311H162.261L160.379 11.8335ZM179.398 17.0848L181.02 8.9152C181.57 6.11718 182.818 3.93381 184.764 2.36509C186.711 0.796383 189.113 0.0133625 191.97 0.0160349C194.784 0.0160349 196.862 0.809742 198.204 2.39716C199.546 3.98458 199.94 6.15726 199.388 8.9152L197.778 17.1008C197.345 19.6697 196.007 21.9908 194.013 23.6309C192.043 25.2344 189.653 26.0361 186.844 26.0361C183.979 26.0361 181.884 25.2344 180.562 23.675C179.24 22.1156 178.846 19.9189 179.398 17.1209V17.0848ZM181.371 17.2131C180.955 19.3296 181.268 20.9986 182.31 22.2199C183.356 23.4225 184.993 24.0478 187.235 24.0478C189.264 24.1176 191.255 23.4718 192.869 22.2199C194.405 20.9669 195.435 19.1856 195.765 17.2131L197.415 8.823C197.833 6.70644 197.525 5.03217 196.492 3.80018C195.458 2.5682 193.821 1.95354 191.583 1.95621C189.547 1.8885 187.552 2.5402 185.936 3.80018C184.394 5.0567 183.358 6.84347 183.024 8.823L181.371 17.2131ZM203.156 17.0167L204.734 8.97132C205.295 6.13588 206.543 3.93247 208.479 2.36109C210.415 0.789701 212.833 0.00267242 215.731 0C218.249 0 220.198 0.721553 221.563 2.15664C222.929 3.59174 223.422 5.66019 222.905 8.30188L222.834 8.65464H220.861L220.932 8.30188C221.335 6.25481 220.958 4.69545 219.804 3.62381C219.208 3.06277 218.509 2.62667 217.748 2.34051C216.986 2.05435 216.176 1.92375 215.364 1.95621C213.968 1.92781 212.581 2.20108 211.296 2.75794C210.131 3.27443 209.118 4.0877 208.353 5.11902C207.554 6.2266 207.015 7.50421 206.774 8.85507L205.141 17.157C204.709 19.343 205.008 21.0373 206.037 22.2399C207.065 23.4425 208.728 24.0438 211.024 24.0438C212.851 24.0418 214.632 23.4571 216.114 22.3722C216.902 21.832 217.573 21.1342 218.085 20.3216C218.598 19.5089 218.943 18.5985 219.097 17.646L219.16 17.3093H221.145L221.078 17.65C220.669 20.1265 219.318 22.3405 217.318 23.8153C215.385 25.2692 213.034 26.0356 210.629 25.996C207.736 25.996 205.631 25.2076 204.316 23.6309C203.001 22.0542 202.619 19.8481 203.172 17.0126L203.156 17.0167ZM227.245 2.37311L227.612 0.52513H245.168L244.801 2.37311H237.043L232.501 25.4428H230.528L235.066 2.37311H227.245ZM244.505 25.4428H246.367L264.293 4.15295L260.103 25.4428H262.076L266.98 0.52513H265.141L247.215 21.815L251.406 0.52513H249.413L244.505 25.4428Z" fill="white"/>
</g>
<defs>
<clipPath id="clip0_63_326">
<rect width="267" height="26" fill="white"/>
</clipPath>
</defs>
</svg>
