<svg width="91" height="43" viewBox="0 0 91 43" fill="none" xmlns="http://www.w3.org/2000/svg">
<g clip-path="url(#clip0_778_120)">
<path fill-rule="evenodd" clip-rule="evenodd" d="M64.3338 13.1661C65.3876 13.3842 66.5394 13.0399 67.5491 12.3063C68.594 11.5472 69.4733 10.3783 69.9409 8.97957C70.0262 8.72427 70.0948 8.4719 70.1458 8.22345C70.383 7.08389 70.2831 6.01476 69.9076 5.1667C69.5567 4.37438 68.9567 3.77673 68.1637 3.51262C68.0529 3.47545 67.9431 3.44611 67.8353 3.42361C66.7815 3.20548 65.6297 3.54979 64.62 4.28342C63.575 5.04247 62.6957 6.21137 62.2281 7.61014C62.1428 7.86544 62.0742 8.11781 62.0233 8.36528C61.786 9.50582 61.885 10.575 62.2605 11.423C62.6114 12.2153 63.2123 12.814 64.0044 13.0771C64.1152 13.1143 64.2249 13.1436 64.3328 13.1661H64.3338ZM52.4881 9.9411C52.69 10.3461 52.9263 10.5613 53.1998 10.5583C53.5733 10.5554 54.0791 10.2688 54.7329 9.66331L55.5299 10.5182C54.6506 11.332 53.8811 11.7174 53.2086 11.7233C52.4361 11.7302 51.8539 11.291 51.4392 10.4615L52.4881 9.94013V9.9411ZM39.3083 17.3517C39.6926 17.7547 40.1268 17.9092 40.6395 17.6666C41.5355 17.2421 42.6922 15.9059 44.2352 13.216L45.2586 13.7823L45.2409 13.8146C44.6988 14.8172 44.2293 15.8472 43.994 16.6376C43.9009 16.9487 43.847 17.2108 43.8411 17.4025C44.2185 17.3233 44.6969 16.9428 45.1694 16.4508C45.9418 15.6467 46.629 14.5854 46.9241 13.9144L47.0084 13.7051L48.1004 14.1208C48.0769 14.1844 48.0504 14.2519 48.019 14.3242C47.724 15.0647 47.4662 15.7846 47.3946 16.3177C47.3554 16.6102 47.372 16.8088 47.4936 16.8235C47.5936 16.8362 47.7926 16.6669 48.0406 16.4009C48.3641 16.0536 48.7101 15.5606 49.0473 15.0354C49.3032 14.2528 49.8178 13.2952 50.6932 12.232L51.5951 12.9724C50.6942 14.067 50.2374 15.0031 50.0747 15.7015C50.0021 16.0155 49.9913 16.261 50.0266 16.4332C50.0335 16.4694 50.0364 16.4938 50.0374 16.5095C50.458 16.4429 51.0216 15.9949 51.5755 15.3904C52.293 14.6089 52.9469 13.5936 53.2792 12.7533L53.291 12.724L54.3879 13.128C53.9693 14.3027 53.7605 15.2877 53.8203 15.858C53.8272 15.9206 53.834 15.9705 53.8409 16.0047C54.1212 15.9196 54.5516 15.5988 55.1564 14.9796L55.9946 15.7934C55.225 16.5809 54.6084 17.0025 54.1359 17.1335C53.6968 17.2548 53.34 17.1697 53.0625 16.9115C52.8312 16.6963 52.6989 16.3764 52.6567 15.9764L52.6528 15.9314C52.5812 16.0145 52.5087 16.0957 52.4361 16.1759C51.6686 17.0122 50.8079 17.6275 50.056 17.6813C49.86 17.695 49.6737 17.6568 49.5041 17.5698C49.2983 17.4641 49.1316 17.292 49.016 17.0621L48.8954 17.1961C48.4004 17.7273 47.8837 18.0481 47.3554 17.9845C46.677 17.9024 46.3408 17.5483 46.2388 17.0152C46.1634 17.0993 46.0879 17.1815 46.0114 17.2617C45.2507 18.054 44.391 18.6321 43.5999 18.5851C43.4941 18.5783 43.3951 18.5577 43.3049 18.5235C42.8863 18.365 42.6902 18.008 42.6736 17.5072C42.1158 18.1088 41.6061 18.503 41.1385 18.725C40.0278 19.2512 39.1613 18.9461 38.4408 18.1469C37.884 18.6565 37.3193 19.1749 36.7341 19.7178L35.8156 19.0253L36.3234 18.0334C36.0254 18.3504 35.744 18.6301 35.4793 18.8756C34.1099 20.1502 33.0904 20.561 32.4738 20.4583C31.6729 20.3262 31.2367 19.8509 31.0789 19.2014C31.0338 19.0175 31.0152 18.8218 31.0191 18.6184C30.8877 18.6399 30.7534 18.6555 30.6191 18.6644H30.6172C30.2231 18.6908 29.8163 18.6634 29.4546 18.6027C29.1389 19.3833 28.7223 20.0054 28.2939 20.4769C27.496 21.3563 26.5833 21.7456 26.1265 21.7123H26.1246C25.9952 21.7025 25.8736 21.6712 25.7609 21.6184C25.409 21.456 25.1806 21.1215 25.0678 20.6637C24.9884 20.3409 24.9629 19.9428 24.9894 19.4977C24.8414 19.5476 24.6953 19.5897 24.5502 19.6249C24.5355 19.6631 24.5199 19.7012 24.5032 19.7393C23.964 21.008 22.7348 22.2816 20.9879 22.3031C20.2733 22.3119 19.8243 21.9539 19.6146 21.3885C19.5567 21.233 19.5204 21.0648 19.5048 20.8867L17.7412 22.6836C17.1913 23.2441 16.7747 23.2989 16.4571 22.9888C16.0267 22.5682 16.5875 21.2995 17.1403 20.0504L17.4805 19.2757C17.1482 19.5555 16.7551 19.9291 16.3287 20.383C15.5307 21.234 14.672 22.3569 13.9525 23.6862L13.9231 23.6706L13.1418 25.5623C11.8429 28.7091 10.547 31.8509 9.50301 34.3492L8.42274 33.9012C9.62848 31.0146 10.846 28.0635 12.0615 25.1192L12.5821 23.8584C12.5321 23.8868 12.484 23.9122 12.438 23.9327C11.9704 24.1489 11.59 24.0961 11.291 23.8398C11.0479 23.6324 10.9175 23.3067 10.8803 22.9027L10.8734 22.8039C10.7009 23.0162 10.5245 23.2216 10.3451 23.4114C9.65201 24.1469 8.89916 24.6761 8.19336 24.6536C7.32582 24.6262 6.95233 24.1088 6.92684 23.338C6.63766 23.5728 6.34064 23.7909 6.04361 23.9895C4.72024 24.8747 3.35374 25.3873 2.75577 25.3618C1.38632 25.3022 0.566814 24.637 0.201171 23.561C-0.0938923 22.6934 -0.0586024 21.5646 0.243323 20.2949C0.529563 19.0879 1.06283 17.7282 1.78236 16.3324C4.47713 11.0992 9.84414 5.35059 14.67 5.28408C15.1455 5.27723 15.565 5.37211 15.9042 5.56481C16.3385 5.81424 16.6326 6.2055 16.7384 6.73175C16.8296 7.18758 16.7708 7.74122 16.5247 8.38289C16.1061 9.47354 15.1131 10.8938 13.3339 12.6066L12.5232 11.7654C14.1652 10.1847 15.0671 8.91403 15.4307 7.9662C15.5935 7.54069 15.6395 7.20616 15.5895 6.95869C15.5543 6.78262 15.4611 6.65546 15.3258 6.57818H15.3239C15.1661 6.48819 14.9484 6.44418 14.6857 6.44711C10.3284 6.50678 5.36428 11.9258 2.82341 16.8596C2.15192 18.1645 1.65394 19.4351 1.38534 20.562C1.13243 21.6262 1.09028 22.5359 1.31084 23.1844C1.51572 23.786 1.9941 24.1597 2.80772 24.1949C3.20964 24.2115 4.2703 23.7723 5.39467 23.0191C6.24849 22.4479 7.10525 21.7025 7.69342 20.8466C7.78164 20.6862 7.87477 20.5268 7.9728 20.3722C8.57077 19.4273 9.35695 18.5959 10.0775 18.3161C10.8754 18.006 11.5763 18.2105 11.9811 19.2493L10.8911 19.6699C10.7901 19.4097 10.648 19.3451 10.499 19.4038C10.0235 19.5887 9.44223 20.2363 8.9619 20.9943C8.47176 21.7681 8.11396 22.622 8.09533 23.1981C8.09043 23.3683 8.12866 23.4847 8.23061 23.4877C8.54528 23.4974 9.00993 23.1257 9.49419 22.6112C10.3362 21.7172 11.1401 20.4407 11.5194 19.7364L12.5821 20.2186C12.2233 21.1714 11.989 22.2014 12.0439 22.7971L12.0458 22.8196C12.4125 22.6024 12.9702 22.0331 13.776 20.9669C14.471 19.2855 15.1318 17.694 15.7121 16.304L16.7923 16.752L15.715 19.3412C16.8531 18.187 17.9236 17.5258 18.4049 17.5131C18.8441 17.5023 19.0509 17.7341 19.0607 18.1684C19.0705 18.5793 18.6441 19.5437 18.2128 20.5209L18.199 20.5512L20.3998 18.3083L20.4115 18.32C21.084 17.4651 22.1064 16.7804 23.3945 16.7374C24.0807 16.7149 24.512 17.0709 24.711 17.6412C24.7816 17.8437 24.8169 18.0726 24.8188 18.3151C24.9394 18.2682 25.0619 18.2164 25.1864 18.1577C25.3609 17.3732 25.6432 16.5212 26.0207 15.7093C26.2696 15.1733 26.5735 14.6363 26.9049 14.11C27.2333 13.5877 27.5773 13.0918 27.9175 12.6193C29.0379 11.067 30.2751 10.1749 31.1387 9.95773C31.5622 9.85209 31.9376 9.88633 32.2346 10.0614C32.5699 10.26 32.7669 10.5975 32.7846 11.0709C32.811 11.783 32.3483 12.945 31.1377 14.5238C29.8702 16.1769 28.0028 17.9493 26.2275 18.9353C26.1971 19.127 26.1755 19.3109 26.1628 19.485C26.1363 19.8509 26.1491 20.159 26.203 20.381L26.2461 20.5424C26.4608 20.5248 26.9215 20.2509 27.4293 19.6914C27.8489 19.2287 28.2567 18.5832 28.5262 17.7371L28.7037 17.1805L29.2585 17.3575C29.5898 17.4632 30.0702 17.5258 30.5417 17.4945C30.8201 17.4759 31.0867 17.425 31.2965 17.3301C31.3739 17.1316 31.4651 16.934 31.569 16.7413C32.2327 15.5068 33.4345 14.424 34.6196 14.4993C34.799 14.5101 34.9774 14.5756 35.1304 14.692C35.2686 14.7977 35.3862 14.9454 35.4607 15.1332C35.5254 15.2946 35.5587 15.4843 35.545 15.6976C35.5215 16.0654 35.3529 16.5339 34.9372 17.0768L34.0079 16.3686C34.2422 16.0624 34.3471 15.8336 34.3716 15.6712C33.7295 15.7533 33.0365 16.4801 32.5983 17.2939C32.4317 17.604 32.3062 17.9229 32.2395 18.2212C32.1797 18.4883 32.167 18.7309 32.2131 18.9226C32.2601 19.1163 32.3993 19.2591 32.6601 19.3021C32.962 19.352 33.6139 19.0087 34.6804 18.0168C35.6205 17.1423 36.8017 15.7964 38.229 13.8264L39.2544 14.3614C38.9926 15.1068 38.6397 15.9216 38.2633 16.7237L38.7407 16.2874C39.6553 15.453 40.5728 14.6167 41.5384 13.7197L42.3354 14.5737C41.5963 15.2603 40.563 16.2023 39.5279 17.1462L39.3044 17.3507L39.3083 17.3517ZM53.8536 16.0507L53.8595 16.0605C53.8742 16.0742 53.8664 16.0654 53.8536 16.0507ZM22.5377 18.096C22.6064 18.1762 22.6779 18.2447 22.7534 18.3024C22.9975 18.4893 23.2965 18.5734 23.6317 18.5734L23.6376 18.5284C23.6611 18.3239 23.6523 18.1498 23.6092 18.0246C23.5827 17.9474 23.5239 17.8994 23.4327 17.9024C23.1112 17.9131 22.8112 17.9826 22.5377 18.097V18.096ZM23.2112 19.712C22.7867 19.6523 22.3936 19.4968 22.0437 19.2297C21.8731 19.0996 21.7153 18.9441 21.5722 18.7612C21.28 19.0595 21.0516 19.4078 20.8958 19.755C20.7821 20.0093 20.7085 20.2627 20.6811 20.4935C20.6576 20.6921 20.6664 20.8603 20.7105 20.9806C20.7468 21.0765 20.833 21.1381 20.9752 21.1362C21.9878 21.1234 22.7603 20.4671 23.2112 19.712ZM26.6451 17.292C27.9596 16.3588 29.2595 15.054 30.2094 13.8156C31.2387 12.4736 31.6357 11.5844 31.618 11.112C31.6171 11.0719 31.6563 11.0758 31.6406 11.066C31.6171 11.0523 31.5425 11.0611 31.4239 11.0904C30.7848 11.2509 29.8143 11.9864 28.8664 13.2991C28.5292 13.7657 28.1959 14.246 27.894 14.7253C27.596 15.1997 27.3185 15.6917 27.0833 16.1964C26.9156 16.5574 26.7686 16.9262 26.6441 17.29L26.6451 17.292ZM69.0381 19.6298C68.4294 21.0892 67.7765 22.666 67.103 24.3025C68.2755 23.1169 69.39 22.4498 69.8811 22.4361C70.3203 22.4254 70.5262 22.6552 70.536 23.0856V23.0876C70.5448 23.4818 70.1272 24.3797 69.6959 25.311C69.641 25.4303 69.5802 25.5447 69.5184 25.6553L70.4213 24.8219L71.2133 25.6768L69.1979 27.5373C68.6136 28.0772 68.1892 28.1085 67.8824 27.7779L67.8833 27.7769C67.4697 27.327 68.0627 26.0485 68.6323 24.8229L68.9165 24.2095C68.5872 24.4815 68.2 24.8414 67.7833 25.2797C66.9903 26.1111 66.1414 27.2096 65.4297 28.5223L65.3817 28.4959L65.0082 29.4075C63.5064 33.0707 62.0046 36.7339 60.9812 39.1852L59.901 38.7372C61.1283 35.7969 62.5281 32.3831 63.9279 28.9683L64.2377 28.2141C63.8603 28.2846 63.5486 28.1916 63.3005 27.9608C63.0692 27.7456 62.9369 27.4257 62.8947 27.0257L62.8908 26.9807C62.8192 27.0638 62.7467 27.146 62.6741 27.2252C61.9066 28.0615 61.0459 28.6768 60.295 28.7306C60.098 28.7443 59.9117 28.7062 59.7431 28.6191C59.5363 28.5125 59.3687 28.3393 59.253 28.1075C59.1971 28.1721 59.1412 28.2337 59.0863 28.2934C58.5688 28.847 58.0247 29.1933 57.4973 29.1297C56.6915 29.0319 56.3837 28.5448 56.3778 27.8317C56.1798 27.9706 55.973 28.0831 55.7583 28.1603C55.2221 28.354 54.6653 28.3345 54.1242 27.9755C54.0154 27.9031 53.9075 27.817 53.8027 27.7153L52.7057 30.4238L51.6206 29.9895L52.5871 27.6038C52.1558 28.086 51.7568 28.4968 51.3902 28.8431C50.0374 30.1206 49.0297 30.5539 48.4141 30.4522C47.6132 30.3191 47.1779 29.8447 47.0191 29.1952C46.9584 28.9448 46.9446 28.6719 46.9721 28.3873C46.828 28.3951 46.679 28.4 46.5261 28.401C46.1692 28.4147 45.8075 28.3883 45.4821 28.3335C45.1664 29.1141 44.7498 29.7352 44.3224 30.2076C43.5245 31.087 42.6118 31.4753 42.155 31.4421H42.1531C42.0237 31.4323 41.9021 31.401 41.7894 31.3482C41.4375 31.1858 41.209 30.8513 41.0963 30.3935C41.0728 30.2986 41.0542 30.1979 41.0404 30.0912C39.52 31.356 38.1869 32.5073 37.0409 33.5549L36.2812 35.3968C35.2852 37.8128 34.2893 40.2299 33.3835 42.4063L33.1365 43L32.5689 42.6968C30.227 41.4457 30.1633 39.6127 32.2866 36.8327C33.1512 35.701 34.4108 34.3912 36.0587 32.8722L36.5076 31.7835C35.9489 32.2158 35.3666 32.4848 34.8176 32.4515C34.7118 32.4457 34.6128 32.4242 34.5216 32.3899C34.0991 32.2295 33.904 31.8686 33.8893 31.3599C33.8834 31.1388 33.9148 30.8816 33.9785 30.5979C33.4012 31.2249 32.7561 31.8568 32.0758 32.4085C30.8456 33.4052 29.4879 34.1447 28.1635 34.1604C27.1568 34.1721 26.551 33.7114 26.2775 32.9299C26.0775 32.3586 26.0903 31.6191 26.2785 30.7867C26.453 30.013 26.7794 29.1414 27.2215 28.2464C28.9791 24.6879 32.6463 20.6363 35.9548 20.5913C36.2743 20.5874 36.5645 20.6481 36.8066 20.7723C37.1419 20.9435 37.3781 21.2183 37.483 21.5939V21.5959C37.5722 21.9128 37.5585 22.2933 37.4173 22.7296C37.2252 23.3253 36.7762 24.0677 35.994 24.9383L35.1235 24.1616C35.7881 23.4221 36.1577 22.8254 36.3037 22.3735C36.3704 22.1671 36.3841 22.0136 36.3557 21.9089C36.342 21.8629 36.3136 21.8297 36.2734 21.8091C36.2018 21.7729 36.0969 21.7544 35.9656 21.7563C33.1345 21.7954 29.8771 25.5037 28.2674 28.7629C27.8646 29.5787 27.5695 30.3602 27.4156 31.043C27.2754 31.6671 27.2529 32.1894 27.3783 32.5464C27.4783 32.832 27.7254 33.0003 28.1518 32.9954C29.1683 32.9837 30.2868 32.3537 31.3357 31.5037C33.1463 30.0365 34.7098 27.9334 35.2999 27.0697L35.4156 27.1489L35.4421 27.101L36.4724 27.6537C35.9224 28.6661 35.446 29.7098 35.2078 30.5089C35.1147 30.82 35.0608 31.0821 35.0549 31.2729C35.4323 31.1936 35.9107 30.8121 36.3832 30.3201C37.234 29.4339 37.982 28.2376 38.2153 27.594L38.2388 27.6028L38.4525 27.0893L39.5328 27.5373C39.0132 28.7815 38.526 29.9553 38.0565 31.088C38.9799 30.2869 39.9915 29.4368 41.0895 28.532C41.2345 27.5871 41.562 26.4818 42.0452 25.442C42.2942 24.906 42.5981 24.369 42.9294 23.8427C43.2578 23.3204 43.6019 22.8235 43.9421 22.352C45.0625 20.7997 46.2996 19.9076 47.1632 19.6904C47.5867 19.5848 47.9622 19.619 48.2592 19.7941C48.5944 19.9927 48.7915 20.3302 48.8091 20.8036C48.8356 21.5157 48.3729 22.6777 47.1623 24.2565C46.4594 25.173 45.6487 26.07 44.7822 26.9308L45.285 27.0912C45.6164 27.1969 46.0957 27.2595 46.5663 27.2282C46.8584 27.2086 47.1378 27.1528 47.3524 27.0492C47.4005 26.9445 47.4514 26.8408 47.5063 26.7391V26.7371C48.17 25.5027 49.3718 24.4199 50.557 24.4952C50.8922 24.5167 51.1422 24.7612 51.2177 25.1554C51.251 25.3315 51.252 25.5633 51.199 25.8176C51.15 26.0485 51.0559 26.3077 50.8981 26.5699C50.503 27.2262 49.6943 27.9275 48.1739 28.2376C48.118 28.4959 48.1073 28.7316 48.1523 28.9194C48.1994 29.1131 48.3386 29.2559 48.5993 29.2989C48.8934 29.3478 49.5365 28.9879 50.5864 27.996C51.5284 27.1059 52.7195 25.7335 54.1693 23.7351L55.1858 24.2946L54.3026 26.476C54.4604 26.7303 54.6173 26.8995 54.7682 27.0002C54.9604 27.1274 55.1623 27.1323 55.3583 27.0619C55.6299 26.9641 55.9093 26.741 56.1681 26.4652C56.6023 26.0025 56.9562 25.4205 57.1493 24.9901L57.2444 24.7534L58.3364 25.1672C58.3119 25.2327 58.2855 25.2973 58.259 25.3628C57.9571 26.115 57.6738 26.8682 57.5806 27.4336C57.5297 27.7427 57.5297 27.9569 57.6326 27.9686C57.7336 27.9804 57.9541 27.7896 58.2276 27.4981C58.5756 27.1254 58.9432 26.6109 59.2834 26.0837C59.5392 25.3022 60.0539 24.3436 60.9293 23.2803L61.8311 24.0208C60.9302 25.1153 60.4734 26.0514 60.3107 26.7489C60.2372 27.0628 60.2274 27.3084 60.2627 27.4815C60.2695 27.5177 60.2725 27.5421 60.2735 27.5588C60.693 27.4923 61.2567 27.0443 61.8115 26.4398C62.5291 25.6572 63.1829 24.6429 63.5152 23.8026L63.527 23.7723L64.6239 24.1773C64.2053 25.352 63.9965 26.3361 64.0563 26.9073C64.0632 26.9699 64.0701 27.0198 64.0769 27.054C64.2857 26.9905 64.5769 26.7968 64.9611 26.4476C66.0983 23.6774 67.1687 21.0726 67.9578 19.1828L69.0381 19.6308V19.6298ZM64.0897 27.1L64.0956 27.1098C64.1103 27.1235 64.1024 27.1147 64.0897 27.1ZM48.815 26.8388C49.3797 26.5972 49.7129 26.2784 49.8963 25.9742C49.9423 25.8979 49.9776 25.8245 50.0041 25.7541C49.5806 25.9311 49.1561 26.3439 48.815 26.8398V26.8388ZM43.3598 26.6863C43.5225 26.5317 43.6842 26.3762 43.844 26.2197C44.7165 25.3608 45.533 24.4639 46.2339 23.5493C47.2632 22.2073 47.6602 21.3181 47.6426 20.8457C47.6416 20.8055 47.6808 20.8095 47.6651 20.7997C47.6416 20.786 47.5671 20.7948 47.4485 20.8241C46.8094 20.9846 45.8389 21.7201 44.891 23.0328C44.5538 23.4994 44.2205 23.9797 43.9185 24.459C43.6205 24.9334 43.3431 25.4254 43.1078 25.9301C42.8941 26.3899 42.7148 26.8613 42.5716 27.3201C42.8294 27.1108 43.0922 26.8985 43.3578 26.6843L43.3598 26.6863ZM44.6635 27.0511C43.8685 27.8336 43.0294 28.5829 42.1854 29.2872C42.1648 29.6227 42.1795 29.9064 42.2305 30.1147L42.2736 30.2761C42.4883 30.2585 42.949 29.9846 43.4568 29.4251C43.8764 28.9624 44.2842 28.3169 44.5537 27.4707L44.6988 27.0169L44.6655 27.0501L44.6635 27.0511ZM32.5748 41.3019C33.4413 39.2185 34.1981 37.3825 34.9441 35.5729C34.2491 36.2879 33.6717 36.9423 33.2139 37.5419C31.8778 39.2899 31.6563 40.4901 32.5748 41.3019ZM62.5781 14.9346C64.5288 15.5949 66.2747 15.4853 67.7941 14.6725C69.4037 13.8117 70.7918 12.1596 71.9329 9.79731L73.0406 9.98708C73.3052 12.3718 72.8484 14.3526 71.9525 15.8071C71.7329 16.1632 71.4868 16.4889 71.2182 16.7804C71.3025 16.7775 71.3868 16.7736 71.4721 16.7687C75.6716 16.5486 80.2554 15.0011 84.1598 11.6431C84.4882 10.3754 84.3735 8.97957 83.5736 7.38419C83.4864 7.21692 83.3962 7.05161 83.3041 6.88826L84.3206 6.3131L84.3235 6.31799L84.3255 6.31701C84.9578 7.43603 85.492 8.64797 85.8567 10.0203C86.737 9.08521 87.5692 8.04249 88.3388 6.88533L89.3867 7.04085C89.4818 7.35876 89.6161 7.54167 89.7778 7.62873C89.9552 7.72459 90.1993 7.73731 90.4807 7.70111L91.0022 8.65384C89.6945 10.214 88.8799 11.8779 88.4054 13.6121C87.9261 15.364 87.7888 17.1991 87.8388 19.0781L86.9026 19.5555C86.7095 19.4087 86.4988 19.3373 86.2753 19.3256C86.0204 19.3119 85.7391 19.3706 85.4401 19.4831L84.6647 18.816C85.196 16.35 85.3068 14.2832 85.1215 12.4951C85.0852 12.5988 85.046 12.7025 85.0048 12.8052C84.2637 14.6461 82.7914 16.2414 81.1729 17.7869L80.3622 16.9467C81.3621 15.991 82.3003 15.0217 83.0139 14.0034C79.3555 16.531 75.2981 17.7371 71.5329 17.9346C70.9202 17.9669 70.3154 17.9718 69.7204 17.9522C69.6165 18.008 69.5116 18.0598 69.4047 18.1088C68.3852 18.5744 67.2422 18.7152 66.0806 18.4863C64.6661 18.2075 63.226 17.381 61.9585 15.9265C60.8959 15.3161 59.9911 14.5844 59.2922 13.751C58.7148 13.0634 58.2776 12.3092 58.0051 11.5013C57.2179 10.8459 56.7798 9.91274 56.6337 8.87589C56.5925 8.58635 56.5759 8.28997 56.5798 7.98967L52.7194 7.09172L52.842 6.02454L56.7053 6.81783C56.719 6.74643 56.7347 6.67404 56.7513 6.60264C56.9239 5.84945 57.2238 5.10801 57.6287 4.44579C58.604 2.84943 60.1892 1.70987 62.1036 1.90844C62.6271 1.56119 63.1819 1.2609 63.7623 1.00853C65.1709 0.395223 66.7286 0.0626477 68.3382 0.00884881C69.938 -0.0449501 71.5917 0.177093 73.2023 0.672042C77.2577 1.91822 81.0592 4.89672 83.1011 9.5694L82.0297 10.035C80.1348 5.70077 76.6137 2.9404 72.8582 1.78617C71.3702 1.32839 69.8458 1.12298 68.3745 1.17286C66.9129 1.22177 65.5013 1.52304 64.2289 2.07668C64.0014 2.17548 63.7789 2.28308 63.5613 2.39752C63.8495 2.59022 64.0867 2.83182 64.2769 3.11256C65.4228 2.39361 66.7188 2.08451 67.951 2.33981C68.1166 2.37404 68.2715 2.41611 68.4176 2.46404C69.5655 2.84552 70.4272 3.69456 70.9222 4.81456C71.3927 5.87782 71.5241 7.18758 71.2398 8.55407C71.179 8.84458 71.1006 9.13705 71.0036 9.42757C70.4722 11.019 69.4655 12.3533 68.2676 13.2238C67.0344 14.1198 65.5875 14.5326 64.2191 14.2489C64.0534 14.2147 63.8985 14.1726 63.7525 14.1247C62.7173 13.7804 61.9144 13.0546 61.4027 12.094C60.8567 12.3542 60.2764 12.4462 59.6843 12.3112C59.8343 12.5489 60.0019 12.7778 60.1882 12.9998C60.8067 13.7364 61.6174 14.3878 62.5781 14.9336V14.9346ZM68.3431 15.7005C67.1177 16.3559 65.7797 16.6317 64.3377 16.5026C64.9856 16.935 65.6493 17.2098 66.3031 17.3389C67.2226 17.5199 68.1206 17.4113 68.9165 17.0484C69.7184 16.6826 70.4252 16.0536 70.9536 15.1958C71.4447 14.3986 71.7799 13.4067 71.8976 12.2457C70.8683 13.8234 69.6792 14.9865 68.3431 15.7015V15.7005ZM61.0567 5.86999C60.8185 6.38255 60.3264 6.68774 59.9578 6.55079C59.5922 6.41581 59.4873 5.88956 59.7274 5.37798C59.9676 4.8664 60.4587 4.56219 60.8244 4.69816C61.191 4.83706 61.2959 5.36135 61.0567 5.87097V5.86999ZM65.2013 6.96162C64.9435 7.56515 64.3553 7.92805 63.8858 7.7735C63.4152 7.61993 63.2417 7.00955 63.4986 6.40603C63.7544 5.80152 64.3426 5.43765 64.8112 5.59122C65.2836 5.74577 65.4552 6.35908 65.2013 6.9626V6.96162ZM63.3878 3.77771C63.1339 3.3884 62.7516 3.11843 62.2164 3.02941C60.6871 2.77607 59.3834 3.71315 58.5717 5.04149C58.2286 5.60296 57.9737 6.23485 57.8257 6.88043C57.813 6.93423 57.8022 6.98803 57.7914 7.04183L61.0057 7.70209C61.0518 7.52211 61.1047 7.34213 61.1645 7.16312C61.6184 5.80544 62.4183 4.6336 63.3878 3.77868V3.77771ZM60.7969 8.97077L57.6816 8.24595C57.6855 8.41811 57.6993 8.58831 57.7228 8.75361C57.8875 9.92447 58.555 10.9124 59.8784 11.2362C60.249 11.3272 60.6264 11.2567 60.993 11.066C60.8126 10.4204 60.743 9.71026 60.7969 8.96979V8.97077ZM88.7701 8.30953C87.9515 9.44811 87.0732 10.4722 86.1498 11.3907L86.1939 11.6695C86.4694 13.5182 86.4449 15.6428 85.9832 18.1655C86.1008 18.1557 86.2165 18.1537 86.3321 18.1606C86.4429 18.1665 86.5517 18.1792 86.6586 18.2007C86.6684 16.5329 86.8409 14.8955 87.2761 13.307C87.7084 11.7272 88.3976 10.2042 89.4396 8.75753C89.3651 8.72916 89.2916 8.6959 89.22 8.65775C89.0544 8.56874 88.9034 8.4543 88.7691 8.31051L88.7701 8.30953Z" fill="#2B2A29"/>
</g>
<defs>
<clipPath id="clip0_778_120">
<rect width="91" height="43" fill="white"/>
</clipPath>
</defs>
</svg>
